<?xml version="1.0" encoding="iso-8859-1"?>
<!-- Generator: Adobe Illustrator 19.0.0, SVG Export Plug-In . SVG Version: 6.00 Build 0)  -->
<svg version="1.1" id="Capa_1" xmlns="http://www.w3.org/2000/svg" xmlns:xlink="http://www.w3.org/1999/xlink" x="0px" y="0px"
	 viewBox="0 0 384 384" style="enable-background:new 0 0 384 384;" xml:space="preserve">
<path style="fill:#303C42;" d="M384,10.667C384,4.771,379.229,0,373.333,0h-32c-5.896,0-10.667,4.771-10.667,10.667
	c0,23.375-11.104,39.458-20.021,52.375c-1.155,1.664-1.908,3.003-2.943,4.549C299.21,65.345,290.464,64,281.542,64h-8.417
	c-20.292,0-39.938,5.948-56.833,17.219l-2.604,1.729c-25.708,17.125-41.563,45.156-43.458,76.885
	C166.375,223.583,147.604,253.24,44,303.229c-26.729,12.875-44,40.396-44,70.104C0,379.229,4.771,384,10.667,384
	c14.333,0,351.125-2.219,372.521-195.063c0.75-6.781,0.813-22.448,0.813-22.479c0-25.164-9.234-48.944-25.367-67.378
	C383.391,55.948,384,12.589,384,10.667z"/>
<path style="fill:#69B342;" d="M328.188,75.167c8.313-12.042,20.354-29.469,23.188-53.833h10.521
	c-1.517,13.602-6.007,38.313-19.251,63.12c-1.436-1.069-2.77-2.245-4.27-3.245c-3.314-2.208-6.811-4.04-10.322-5.836
	C328.105,75.297,328.135,75.242,328.188,75.167z"/>
<path style="fill:#D32F2F;" d="M361.979,186.594C344.771,341.667,81.646,360.177,22.417,362.375
	c3.438-17.177,14.792-32.198,30.833-39.938c114-54.99,134.125-92.594,138.271-161.323c1.5-25,13.896-47.021,34-60.427l2.604-1.729
	c13.375-8.917,28.937-13.625,45-13.625h8.417c16.063,0,31.625,4.708,45,13.625c22.625,15.073,36.125,40.313,36.125,67.469
	C362.667,166.51,362.646,180.531,361.979,186.594z"/>
<path style="opacity:0.1;enable-background:new    ;" d="M326.542,98.958c-1.303-0.868-2.716-1.508-4.06-2.296
	c10.315,13.81,16.172,30.68,16.172,48.431c0,0.083-0.021,14.104-0.688,20.167c-14.855,133.866-214.289,131.827-295.317,176.09
	c-7.592,4.147-18.516,12.446-20.233,21.024c59.229-2.198,322.354-20.708,339.563-175.781c0.667-6.063,0.688-20.083,0.688-20.167
	C362.667,139.271,349.167,114.031,326.542,98.958z"/>
<path style="fill:#FFFFFF;" d="M237.333,118.458c-14.479,9.667-23.417,25.677-24.521,43.938c-0.354,5.875,4.125,10.927,10,11.281
	c0.229,0.01,0.438,0.021,0.646,0.021c5.604,0,10.313-4.365,10.646-10.031c0.688-11.531,6.188-21.542,15.063-27.458
	c4.896-3.271,6.229-9.896,2.958-14.792C248.833,116.49,242.188,115.188,237.333,118.458z"/>
<linearGradient id="SVGID_1_" gradientUnits="userSpaceOnUse" x1="-103.2493" y1="571.2167" x2="-91.1434" y2="565.5723" gradientTransform="matrix(21.3333 0 0 -21.3333 2299.832 12333.7461)">
	<stop  offset="0" style="stop-color:#FFFFFF;stop-opacity:0.2"/>
	<stop  offset="1" style="stop-color:#FFFFFF;stop-opacity:0"/>
</linearGradient>
<path style="fill:url(#SVGID_1_);" d="M384,10.667C384,4.771,379.229,0,373.333,0h-32c-5.896,0-10.667,4.771-10.667,10.667
	c0,23.375-11.104,39.458-20.021,52.375c-1.155,1.664-1.908,3.003-2.943,4.549C299.21,65.345,290.464,64,281.542,64h-8.417
	c-20.292,0-39.938,5.948-56.833,17.219l-2.604,1.729c-25.708,17.125-41.563,45.156-43.458,76.885
	C166.375,223.583,147.604,253.24,44,303.229c-26.729,12.875-44,40.396-44,70.104C0,379.229,4.771,384,10.667,384
	c14.333,0,351.125-2.219,372.521-195.063c0.75-6.781,0.813-22.448,0.813-22.479c0-25.164-9.234-48.944-25.367-67.378
	C383.391,55.948,384,12.589,384,10.667z"/>
<g>
</g>
<g>
</g>
<g>
</g>
<g>
</g>
<g>
</g>
<g>
</g>
<g>
</g>
<g>
</g>
<g>
</g>
<g>
</g>
<g>
</g>
<g>
</g>
<g>
</g>
<g>
</g>
<g>
</g>
</svg>
