<svg height="512" viewBox="0 0 40 58" width="512" xmlns="http://www.w3.org/2000/svg"><g id="029---Food-Processor" fill="none"><path id="Shape" d="m40 19v7c0 6-4 8-9.9 8 0-.1-1-.19-1-.29s-.1-2.91-.1-3.48c0-.08 1-.15 1-.23 3 0 6-1 6-4v-6c0-.5522847-.4477153-1-1-1h-3l-1.5-2 1.5-2h4c2.209139 0 4 1.790861 4 4z" fill="#7f8c8d"/><path id="Shape" d="m21 20.43c-3.23.1-4.76.1-8 0s-7.84 1.49-9.88.61c.24 2 .76 6.6.86 9.19 3 .35 6 2.08 9 2.18 2.67.1 5.33.1 8 0 3-.1 6-1.83 9-2.18 0-1.53.62-7.21.86-9.2-1.75.89-6.84-.71-9.84-.6z" fill="#90bae1"/><path id="Shape" d="m21 21.08v10.66c-2.67.12-5.33.12-8 0v-10.66c3.23.12 4.77.12 8 0z" fill="#b0d3f0"/><path id="Shape" d="m30.12 34.22c.2621973 2.0267183.8997446 3.986837 1.88 5.78 2 4 1 14 1 14 0 3-3 4-5 4h-22c-2 0-5-1-5-4 0 0-1-10 1-14 .9802554-1.793163 1.61780266-3.7532817 1.88-5.78z" fill="#e64c3c"/><path id="Shape" d="m4.9 46c-.28157255.0011429-.55057918-.116476-.74093244-.3239611-.19035326-.207485-.28441162-.4856069-.25906756-.7660389.35-3.66.79-3.09 2-6.26.12504295-.3358297.4197504-.5794395.77310889-.6390639.3533585-.0596245.71168448.0737948.94000002.35.22831553.2762052.29193406.6532342.16689109.9890639-1.18 3.19-1.55 2.52-1.85 5.74-.04745803.528596-.49958484.9280478-1.03.91z" fill="#fb7b76"/><path id="Shape" d="m4.76 51c-.55228475 0-1-.4477153-1-1 0-.69 0-1.37 0-2 0-.5522847.44771525-1 1-1s1 .4477153 1 1v2c0 .5522847-.44771525 1-1 1z" fill="#fb7b76"/><path id="Shape" d="m20 53h-6c-1.1045695 0-2-.8954305-2-2s.8954305-2 2-2h6c1.1045695 0 2 .8954305 2 2s-.8954305 2-2 2z" fill="#f29c1f"/><path id="Shape" d="m23 1.53v12.39c-3.9373675-1.0010593-8.0626325-1.0010593-12 0v-12.39z" fill="#b0d3f0"/><path id="Shape" d="m30.1 34c-.04-.33-.05-.44 0 0z" fill="#90bae1"/><path id="Shape" d="m30.12 34.22c-8.7169303 1.0199877-17.5230697 1.0199877-26.24 0 .11182834-1.3302141.14521948-2.6658597.1-4 8.6376908 1.0022462 17.3623092 1.0022462 26 0z" fill="#a5a5a4"/><path id="Shape" d="m26 2c0 1.1045695-.8954305 2-2 2h-14c-1.1045695 0-2-.8954305-2-2s.8954305-2 2-2h14c1.1045695 0 2 .8954305 2 2z" fill="#90bae1"/><path id="Shape" d="m23 11.45c-3.9771045-.6052501-8.0228955-.6052501-12 0-6.5 1.05-9 3.55-9 3.55v4.23c.00187426.84464.53416218 1.597047 1.33 1.88.91.42 10.8 1 15.67.87 3.7570142-.0653117 7.5083907-.3189635 11.24-.76 1.0099301-.1220468 1.7673478-.9827487 1.76-2v-4.22s-2.5-2.5-9-3.55z" fill="#e64c3c"/><path id="Shape" d="m15 16v6c-1.72 0-10.77-.46-11.67-.87-.80277696-.2853936-1.33662099-1.0480279-1.33-1.9l-.0000609-4.23c4.31119689.5770059 8.6513962.9108674 13.0000609 1z" fill="#c03a2b"/><path id="Shape" d="m32.000053 15-.000053 4.23c.0073478 1.0172513-.7500699 1.8779532-1.76 2-3.7314411.444379-7.4828182.7013684-11.24.77v-6c4.3486647-.0891326 8.688864-.4229941 13.000053-1z" fill="#c03a2b"/><path id="Shape" d="m19 16v6c-1.33 0-2.67 0-4 0v-6z" fill="#e57e25"/></g></svg>