<?xml version="1.0" standalone="no"?>
<!DOCTYPE svg PUBLIC "-//W3C//DTD SVG 20010904//EN"
 "http://www.w3.org/TR/2001/REC-SVG-20010904/DTD/svg10.dtd">
<svg version="1.0" xmlns="http://www.w3.org/2000/svg"
 width="2000.000000pt" height="2083.000000pt" viewBox="0 0 2000.000000 2083.000000"
 preserveAspectRatio="xMidYMid meet">

<g transform="translate(0.000000,2083.000000) scale(0.100000,-0.100000)"
fill="#000000" stroke="none">
<path d="M14262 19173 c-38 -54 -806 -1151 -1707 -2438 -901 -1287 -2152
-3073 -2780 -3970 -628 -896 -2725 -3891 -4660 -6655 -1935 -2764 -3522 -5031
-3528 -5037 -7 -10 152 -13 789 -13 l799 1 1046 1497 c983 1405 1859 2657
5689 8132 5137 7343 5981 8550 5986 8564 6 14 -69 16 -779 16 l-786 0 -69 -97z"/>
<path d="M3340 18600 c-1086 -274 -1994 -503 -2017 -509 l-43 -12 0 -664 c0
-366 4 -665 8 -665 9 0 2260 555 2295 566 16 5 17 -211 17 -4440 l0 -4446 870
0 870 0 0 5335 c0 4262 -3 5335 -12 5334 -7 -1 -902 -225 -1988 -499z"/>
<path d="M14720 12144 c-25 -2 -108 -8 -185 -14 -705 -54 -1460 -229 -2145
-497 -91 -35 -184 -72 -207 -81 l-43 -16 0 -684 c0 -376 3 -682 8 -680 4 2
135 67 292 145 723 360 1292 548 1915 630 183 24 629 24 810 -1 881 -118 1349
-562 1461 -1386 23 -171 23 -475 0 -635 -114 -787 -609 -1582 -1540 -2474 -89
-84 -372 -341 -631 -570 -258 -229 -530 -472 -605 -541 -597 -552 -1122 -1146
-1546 -1750 -110 -158 -325 -492 -392 -611 l-32 -56 0 -717 0 -716 3285 0
3285 0 0 715 0 715 -2279 2 -2279 3 34 118 c201 698 744 1428 1621 2179 66 57
297 247 511 421 486 395 669 554 946 827 890 875 1361 1686 1467 2525 16 125
16 475 0 615 -73 653 -306 1147 -750 1590 -527 527 -1199 825 -2082 926 -135
15 -793 28 -919 18z"/>
</g>
</svg>
