<?xml version="1.0" encoding="iso-8859-1"?>
<!-- Generator: Adobe Illustrator 19.0.0, SVG Export Plug-In . SVG Version: 6.00 Build 0)  -->
<svg version="1.1" id="Capa_1" xmlns="http://www.w3.org/2000/svg" xmlns:xlink="http://www.w3.org/1999/xlink" x="0px" y="0px"
	 viewBox="0 0 511.999 511.999" style="enable-background:new 0 0 511.999 511.999;" xml:space="preserve">
<path style="fill:#BA8E79;" d="M365.336,9.622L365.336,9.622c-18.278-6.653-38.456,3.002-44.743,21.409l-77.178,225.952
	l56.315,20.497l86.118-222.698C392.865,36.64,383.614,16.274,365.336,9.622z"/>
<path style="opacity:0.1;enable-background:new    ;" d="M328.247,203.739c-14.75-14.844-35.173-24.04-57.754-24.04
	c-0.228,0-0.455,0.008-0.683,0.01l-26.394,77.275l56.315,20.497L328.247,203.739z"/>
<path style="fill:#F8D9B9;" d="M382.151,231.767c-12.182-0.585-23.689,2.081-33.737,7.205c-9.778,4.986-21.696,2.775-28.603-5.755
	c-14.931-18.438-37.742-30.23-63.317-30.23s-48.386,11.792-63.317,30.23c-6.907,8.53-18.825,10.742-28.603,5.755
	c-10.047-5.124-21.555-7.79-33.737-7.205c-34.509,1.658-62.447,29.902-63.755,64.426c-1.449,38.253,29.133,69.72,67.063,69.72
	c24.322,0,45.623-12.939,57.394-32.309c14.875,19.625,38.43,32.309,64.954,32.309s50.079-12.684,64.954-32.309
	c11.772,19.369,33.072,32.309,57.394,32.309c37.931,0,68.512-31.467,67.063-69.72C444.599,261.669,416.66,233.425,382.151,231.767z"
	/>
<path style="opacity:0.1;enable-background:new    ;" d="M147.144,232.955c-5.243-1.03-10.702-1.457-16.306-1.188
	c-34.509,1.658-62.447,29.902-63.755,64.426c-1.449,38.253,29.133,69.72,67.063,69.72c15.142,0,29.11-5.016,40.339-13.475
	C134.08,306.534,136.699,253,147.144,232.955z"/>
<g style="opacity:0.1;">
	<circle cx="393.637" cy="265.813" r="7.247"/>
	<circle cx="213.583" cy="287.322" r="7.247"/>
	<circle cx="263.241" cy="235.444" r="7.247"/>
	<circle cx="124.626" cy="258.563" r="7.247"/>
</g>
<path style="fill:#7CD9D2;" d="M151.48,504.501h209.039c10.724,0,21.248-3.043,30.247-8.877
	c62.005-40.196,104.937-107.314,112.219-184.804c1.186-12.621-8.831-23.5-21.507-23.5H30.52c-12.676,0-22.693,10.88-21.507,23.5
	c7.283,77.491,50.214,144.608,112.219,184.804C130.231,501.458,140.756,504.501,151.48,504.501z"/>
<circle style="fill:#FFFFFF;" cx="256.001" cy="362.03" r="31.447"/>
<g>
	<path style="fill:#F8D662;" d="M37.453,330.584c-9.419,0-17.864,4.147-23.628,10.708c3.998,18.015,9.938,35.3,17.619,51.605
		c1.946,0.377,3.953,0.58,6.009,0.58c17.367,0,31.447-14.08,31.447-31.447C68.899,344.662,54.821,330.584,37.453,330.584z"/>
	<path style="fill:#F8D662;" d="M474.546,330.584c9.419,0,17.864,4.147,23.628,10.708c-3.998,18.015-9.938,35.3-17.619,51.605
		c-1.946,0.377-3.953,0.58-6.009,0.58c-17.367,0-31.447-14.08-31.447-31.447C443.1,344.662,457.178,330.584,474.546,330.584z"/>
</g>
<path style="fill:#C3E9F1;" d="M429.926,410.86c-35.858-20.776-80.092-20.776-115.951,0l0,0c-35.858,20.776-80.092,20.776-115.951,0
	l0,0c-35.858-20.776-80.092-20.776-115.951,0L51.89,428.349c18.483,26.695,42.065,49.592,69.342,67.276
	c8.999,5.833,19.523,8.877,30.247,8.877h209.039c10.724,0,21.248-3.043,30.247-8.877c27.278-17.683,50.858-40.581,69.342-67.276
	L429.926,410.86z"/>
<path style="opacity:0.1;enable-background:new    ;" d="M9.013,310.82c7.283,77.491,50.214,144.608,112.219,184.804
	c8.999,5.834,19.523,8.877,30.247,8.877h73.178C156.472,462.777,120.39,353.039,115.535,287.32H30.52
	C17.845,287.32,7.827,298.2,9.013,310.82z"/>
<path d="M503.028,289.345c-5.512-6.054-13.366-9.525-21.549-9.525h-30.5c-2.422-9.104-6.602-17.784-12.267-25.398
	c-2.473-3.323-7.17-4.012-10.494-1.54c-3.323,2.472-4.013,7.171-1.54,10.494c3.722,5.003,6.62,10.584,8.616,16.444H77.677
	c7.75-22.831,29.004-39.385,53.52-40.563c10.422-0.501,20.784,1.71,29.97,6.396c13.166,6.712,28.724,3.54,37.839-7.717
	c14.126-17.444,35.079-27.45,57.488-27.45c21.412,0,41.491,9.14,55.558,25.171c0.014,0.016,0.029,0.032,0.043,0.048
	c0.64,0.731,1.273,1.471,1.887,2.23c9.116,11.256,24.672,14.43,37.839,7.717c9.187-4.685,19.55-6.898,29.969-6.396
	c6.839,0.329,13.509,1.835,19.824,4.477c3.822,1.599,8.215-0.204,9.813-4.026c1.598-3.822-0.205-8.215-4.026-9.813
	c-7.931-3.316-16.304-5.207-24.891-5.62c-13.025-0.628-25.994,2.145-37.504,8.015c-6.438,3.283-13.928,2.044-18.619-2.949
	l31.542-81.566c25.488-1.403,48.973-4.863,67.864-10.08c28.914-7.987,43.576-18.96,43.576-32.618
	c0-11.66-10.815-21.427-32.145-29.033c-3.902-1.391-8.192,0.644-9.583,4.545c-1.391,3.902,0.644,8.192,4.545,9.584
	c17.511,6.244,22.183,12.307,22.183,14.905c0,3.169-6.807,11.043-32.569,18.159c-16.227,4.482-36.147,7.594-57.913,9.134
	l20.343-52.606c2.814,0.35,5.592,0.725,8.295,1.129c0.376,0.056,0.749,0.083,1.118,0.083c3.652,0,6.853-2.672,7.408-6.393
	c0.612-4.097-2.212-7.914-6.309-8.526c-1.624-0.243-3.277-0.473-4.942-0.697l3.045-7.874c4.126-10.67,3.792-22.281-0.939-32.696
	S378.651,6.485,367.901,2.573c-10.749-3.912-22.351-3.348-32.67,1.59c-10.319,4.938-18.037,13.619-21.734,24.443l-11.619,34.015
	c-27.951,1.798-53.41,6.135-72.134,12.323c-23.457,7.752-35.351,17.89-35.351,30.133c0,11.659,10.815,21.427,32.145,29.033
	c0.833,0.297,1.683,0.438,2.519,0.438c3.082,0,5.97-1.914,7.064-4.983c1.391-3.901-0.644-8.192-4.545-9.584
	c-17.511-6.244-22.183-12.307-22.183-14.905c0-7.204,26.482-22.335,87.223-27.051l-17.853,52.269
	c-2.548-0.322-5.06-0.665-7.525-1.033c-4.093-0.612-7.914,2.213-8.525,6.31c-0.612,4.097,2.213,7.914,6.31,8.525
	c1.58,0.236,3.183,0.459,4.796,0.677l-17.321,50.712h-0.002c-26.956,0-52.159,12.032-69.145,33.01
	c-4.612,5.697-12.578,7.257-19.367,3.794c-11.51-5.869-24.473-8.646-37.504-8.015c-32.389,1.556-60.245,24.523-68.471,55.544H30.52
	c-8.184,0-16.038,3.472-21.549,9.525c-5.478,6.017-8.184,14.1-7.425,22.176c4.082,43.433,19.332,84.936,43.854,120.585
	c0,0.001,0.001,0.001,0.001,0.002c0.199,0.343,0.427,0.657,0.668,0.956c9.188,13.228,19.646,25.645,31.302,37.037
	c2.962,2.895,7.71,2.84,10.606-0.121c2.895-2.963,2.841-7.711-0.122-10.606c-9.141-8.933-17.499-18.535-25.038-28.689l23.014-13.336
	c33.441-19.375,74.99-19.376,108.431,0c38.081,22.063,85.392,22.063,123.472,0c33.442-19.376,74.991-19.375,108.431,0l23.014,13.336
	c-17.145,23.015-38.451,43.06-62.494,58.646c-7.741,5.018-16.789,7.67-26.168,7.67H151.48c-9.378,0-18.426-2.652-26.167-7.67
	c-3.878-2.514-7.727-5.17-11.44-7.895c-3.34-2.449-8.034-1.728-10.484,1.612c-2.45,3.34-1.728,8.034,1.612,10.483
	c3.945,2.894,8.034,5.715,12.152,8.386c10.176,6.597,22.046,10.083,34.327,10.083h209.039c12.281,0,24.15-3.487,34.327-10.083
	c31.786-20.606,59.082-48.538,78.937-80.777c20.646-33.525,32.984-70.406,36.67-109.619
	C511.211,303.444,508.506,295.362,503.028,289.345z M314.399,72.37c0.003-0.008,0.006-0.017,0.009-0.025l13.284-38.89
	c2.384-6.981,7.361-12.578,14.015-15.762c6.654-3.184,14.135-3.548,21.066-1.025c6.931,2.523,12.428,7.61,15.479,14.326
	c3.05,6.716,3.265,14.203,0.605,21.082l-31.376,81.137c-5.137,0.171-10.337,0.268-15.598,0.268c-12.858,0-25.63-0.54-37.817-1.579
	L314.399,72.37z M289.074,146.513c13.728,1.294,28.224,1.968,42.808,1.968c3.267,0,6.508-0.044,9.735-0.108l-26.684,69.005
	c-12.221-10.684-27.065-17.773-43.041-20.558L289.074,146.513z M495.518,310.118c-3.468,36.901-15.078,71.608-34.507,103.157
	c-1.049,1.703-2.127,3.388-3.219,5.064l-24.106-13.968c-38.08-22.064-85.391-22.065-123.471,0
	c-33.441,19.376-74.99,19.376-108.432,0c-38.08-22.065-85.392-22.064-123.471,0l-24.09,13.959
	c-21.015-32.343-34.1-69.465-37.742-108.212c-0.371-3.94,0.902-7.731,3.582-10.675c2.715-2.982,6.429-4.624,10.458-4.624h37.486
	c0.011,0,0.023,0.001,0.034,0.001c0.011,0,0.022-0.001,0.033-0.001h376.843c0.011,0,0.022,0.001,0.033,0.001
	s0.023-0.001,0.034-0.001h36.496c4.03,0,7.744,1.642,10.459,4.624C494.616,302.387,495.889,306.178,495.518,310.118z"/>
<g>
</g>
<g>
</g>
<g>
</g>
<g>
</g>
<g>
</g>
<g>
</g>
<g>
</g>
<g>
</g>
<g>
</g>
<g>
</g>
<g>
</g>
<g>
</g>
<g>
</g>
<g>
</g>
<g>
</g>
</svg>
