<?xml version="1.0" encoding="iso-8859-1"?>
<!-- Generator: Adobe Illustrator 19.0.0, SVG Export Plug-In . SVG Version: 6.00 Build 0)  -->
<svg version="1.1" id="Capa_1" xmlns="http://www.w3.org/2000/svg" xmlns:xlink="http://www.w3.org/1999/xlink" x="0px" y="0px"
	 viewBox="0 0 512 512" style="enable-background:new 0 0 512 512;" xml:space="preserve">
<path style="fill:#303C42;" d="M256,0C114.833,0,0,114.844,0,256s114.833,256,256,256s256-114.844,256-256S397.167,0,256,0z"/>
<path id="SVGCleanerId_0" style="fill:#F2F2F2;" d="M256,490.667C126.604,490.667,21.333,385.396,21.333,256
	S126.604,21.333,256,21.333S490.667,126.604,490.667,256S385.396,490.667,256,490.667z"/>
<g>
	<path id="SVGCleanerId_0_1_" style="fill:#F2F2F2;" d="M256,490.667C126.604,490.667,21.333,385.396,21.333,256
		S126.604,21.333,256,21.333S490.667,126.604,490.667,256S385.396,490.667,256,490.667z"/>
</g>
<path style="opacity:0.1;enable-background:new    ;" d="M96,298.667C96,169.271,201.271,64,330.667,64
	c26.999,0,52.837,4.813,76.997,13.241C366.72,42.449,313.814,21.333,256,21.333C126.604,21.333,21.333,126.604,21.333,256
	c0,102.397,66.034,189.458,157.669,221.426C128.307,434.348,96,370.249,96,298.667z"/>
<g>
	<path style="fill:#303C42;" d="M266.667,74.667C266.667,68.771,261.896,64,256,64C150.125,64,64,150.135,64,256
		c0,5.896,4.771,10.667,10.667,10.667c5.896,0,10.667-4.771,10.667-10.667c0-94.104,76.563-170.667,170.667-170.667
		C261.896,85.333,266.667,80.563,266.667,74.667z"/>
	<path style="fill:#303C42;" d="M437.333,245.333c-5.896,0-10.667,4.771-10.667,10.667c0,94.104-76.563,170.667-170.667,170.667
		c-5.896,0-10.667,4.771-10.667,10.667S250.104,448,256,448c105.875,0,192-86.135,192-192
		C448,250.104,443.229,245.333,437.333,245.333z"/>
</g>
<linearGradient id="SVGID_1_" gradientUnits="userSpaceOnUse" x1="-45.5785" y1="639.5551" x2="-23.8277" y2="629.4137" gradientTransform="matrix(21.3333 0 0 -21.3333 996.3334 13791.667)">
	<stop  offset="0" style="stop-color:#FFFFFF;stop-opacity:0.2"/>
	<stop  offset="1" style="stop-color:#FFFFFF;stop-opacity:0"/>
</linearGradient>
<path style="fill:url(#SVGID_1_);" d="M256,0C114.833,0,0,114.844,0,256s114.833,256,256,256s256-114.844,256-256S397.167,0,256,0z"
	/>
<g>
</g>
<g>
</g>
<g>
</g>
<g>
</g>
<g>
</g>
<g>
</g>
<g>
</g>
<g>
</g>
<g>
</g>
<g>
</g>
<g>
</g>
<g>
</g>
<g>
</g>
<g>
</g>
<g>
</g>
</svg>
