<?xml version="1.0" encoding="iso-8859-1"?>
<!-- Generator: Adobe Illustrator 19.0.0, SVG Export Plug-In . SVG Version: 6.00 Build 0)  -->
<svg width="80pt" height="80pt" version="1.1" id="Layer_1" xmlns="http://www.w3.org/2000/svg" xmlns:xlink="http://www.w3.org/1999/xlink" x="0px" y="0px"
	 viewBox="0 0 512.001 512.001" style="enable-background:new 0 0 512.001 512.001;" xml:space="preserve">
<g transform="translate(-1)">
	<path style="fill:#A46F3E;" d="M231.489,132.672C160.162,180.985-8.454,147.661,1.415,285.433
		c8.174,114.132,180.63,137.958,267.511,133.35C623.698,399.971,523.161-64.916,231.489,132.672"/>
	<g>
		<path style="fill:#88C057;" d="M36.312,428.139H18.656c-4.882,0-8.828-3.955-8.828-8.828s3.946-8.828,8.828-8.828h17.655
			c4.882,0,8.828,3.955,8.828,8.828S41.193,428.139,36.312,428.139"/>
		<path style="fill:#88C057;" d="M504.174,428.139h-35.31c-4.882,0-8.828-3.955-8.828-8.828s3.946-8.828,8.828-8.828h35.31
			c4.882,0,8.828,3.955,8.828,8.828S509.055,428.139,504.174,428.139"/>
	</g>
	<g>
		<path style="fill:#6A3311;" d="M98.105,313.381c-4.882,0-8.828-3.955-8.828-8.828v-8.828c0-4.873,3.946-8.828,8.828-8.828
			s8.828,3.955,8.828,8.828v8.828C106.932,309.426,102.986,313.381,98.105,313.381"/>
		<path style="fill:#6A3311;" d="M142.243,366.346c-4.882,0-8.828-3.955-8.828-8.828v-17.655c0-4.873,3.946-8.828,8.828-8.828
			s8.828,3.955,8.828,8.828v17.655C151.07,362.391,147.124,366.346,142.243,366.346"/>
		<path style="fill:#6A3311;" d="M186.381,348.691c-4.882,0-8.828-3.955-8.828-8.828v-44.138c0-4.873,3.946-8.828,8.828-8.828
			s8.828,3.955,8.828,8.828v44.138C195.208,344.736,191.262,348.691,186.381,348.691"/>
		<path style="fill:#6A3311;" d="M292.312,251.588c-4.882,0-8.828-3.955-8.828-8.828v-17.655c0-4.873,3.946-8.828,8.828-8.828
			c4.882,0,8.828,3.955,8.828,8.828v17.655C301.139,247.633,297.193,251.588,292.312,251.588"/>
		<path style="fill:#6A3311;" d="M292.312,357.519c-4.882,0-8.828-3.955-8.828-8.828V278.07c0-4.873,3.946-8.828,8.828-8.828
			c4.882,0,8.828,3.955,8.828,8.828v70.621C301.139,353.564,297.193,357.519,292.312,357.519"/>
		<path style="fill:#6A3311;" d="M292.312,198.622c-2.295,0-4.599-0.971-6.268-2.56c-1.598-1.677-2.56-3.972-2.56-6.268
			c0-2.295,0.962-4.59,2.56-6.268c3.266-3.266,9.181-3.266,12.535,0c1.589,1.677,2.56,3.972,2.56,6.268
			c0,2.295-0.971,4.59-2.56,6.268C296.902,197.651,294.607,198.622,292.312,198.622"/>
		<path style="fill:#6A3311;" d="M415.898,180.967c-0.538,0-1.148-0.088-1.677-0.177c-0.618-0.088-1.148-0.265-1.677-0.53
			c-0.53-0.177-1.059-0.441-1.598-0.794c-0.433-0.353-0.874-0.706-1.315-1.059c-0.794-0.883-1.412-1.854-1.854-2.913
			c-0.53-1.059-0.706-2.207-0.706-3.354c0-2.383,0.962-4.59,2.56-6.268l1.315-1.059c0.538-0.353,1.068-0.618,1.598-0.794
			c0.53-0.265,1.059-0.441,1.677-0.53c2.825-0.618,5.826,0.353,7.945,2.383c1.589,1.677,2.56,3.972,2.56,6.268
			c0,2.295-0.971,4.59-2.56,6.268C420.488,179.996,418.193,180.967,415.898,180.967"/>
		<path style="fill:#6A3311;" d="M415.898,304.553c-0.538,0-1.148-0.088-1.677-0.177c-0.618-0.088-1.148-0.265-1.677-0.53
			c-0.53-0.177-1.059-0.441-1.598-0.794c-0.433-0.265-0.874-0.706-1.315-1.059c-1.598-1.677-2.56-3.972-2.56-6.268
			c0-1.148,0.177-2.295,0.706-3.354c0.441-1.148,1.059-2.03,1.854-2.913c3.266-3.266,9.181-3.266,12.535,0
			c0.794,0.883,1.412,1.766,1.854,2.913c0.441,1.059,0.706,2.207,0.706,3.354c0,2.295-0.971,4.59-2.56,6.268
			C420.488,303.582,418.193,304.553,415.898,304.553"/>
		<path style="fill:#6A3311;" d="M468.863,225.105c-4.882,0-8.828-3.955-8.828-8.828v-8.828c0-4.873,3.946-8.828,8.828-8.828
			c4.882,0,8.828,3.955,8.828,8.828v8.828C477.691,221.15,473.745,225.105,468.863,225.105"/>
		<path style="fill:#6A3311;" d="M257.001,428.139c-4.882,0-8.828-3.955-8.828-8.828v-35.31c0-4.873,3.946-8.828,8.828-8.828
			c4.882,0,8.828,3.955,8.828,8.828v35.31C265.829,424.185,261.883,428.139,257.001,428.139"/>
		<path style="fill:#6A3311;" d="M468.863,180.967c4.882,0,8.828-3.955,8.828-8.828v-20.983c-3.999-7.583-8.66-14.724-13.948-21.327
			c-2.189,1.607-3.708,4.078-3.708,7v35.31C460.036,177.012,463.982,180.967,468.863,180.967"/>
		<path style="fill:#6A3311;" d="M407.07,90.359v46.468c0,4.873,3.946,8.828,8.828,8.828c4.882,0,8.828-3.955,8.828-8.828V97.712
			C419.146,94.834,413.25,92.38,407.07,90.359"/>
		<path style="fill:#6A3311;" d="M336.45,145.657c4.882,0,8.828-3.955,8.828-8.828V85.223c-5.747,0.724-11.635,1.774-17.655,3.134
			v48.472C327.622,141.702,331.568,145.657,336.45,145.657"/>
		<path style="fill:#6A3311;" d="M186.381,207.45c4.882,0,8.828-3.955,8.828-8.828v-49.373c-5.694,1.827-11.599,3.496-17.655,5.041
			v44.332C177.553,203.495,181.499,207.45,186.381,207.45"/>
		<path style="fill:#6A3311;" d="M71.622,216.277c4.882,0,8.828-3.955,8.828-8.828v-30.173c-6.091,1.969-11.988,4.131-17.655,6.541
			v23.631C62.794,212.322,66.74,216.277,71.622,216.277"/>
		<path style="fill:#6A3311;" d="M53.967,370.89V304.55c0-4.873-3.946-8.828-8.828-8.828s-8.828,3.955-8.828,8.828v52.206
			C41.723,361.833,47.637,366.538,53.967,370.89"/>
		<path style="fill:#6A3311;" d="M105.93,396.725c0.591-1.192,1.006-2.481,1.006-3.893v-52.966c0-4.882-3.955-8.828-8.828-8.828
			c-4.882,0-8.828,3.946-8.828,8.828v50.273C94.71,392.488,100.253,394.704,105.93,396.725"/>
		<path style="fill:#6A3311;" d="M362.932,357.519c0-4.873-3.946-8.828-8.828-8.828s-8.828,3.955-8.828,8.828v44.138
			c0,1.571,0.521,2.966,1.236,4.246c5.658-1.677,11.114-3.522,16.419-5.482V357.519z"/>
		<path style="fill:#6A3311;" d="M415.898,322.208c-4.882,0-8.828,3.955-8.828,8.828v47.819c6.232-3.928,12.12-8.068,17.655-12.42
			v-35.399C424.725,326.163,420.78,322.208,415.898,322.208"/>
	</g>
	<path style="fill:#88C057;" d="M433.553,428.139H80.45c-4.882,0-8.828-3.955-8.828-8.828s3.946-8.828,8.828-8.828h353.103
		c4.882,0,8.828,3.955,8.828,8.828S438.435,428.139,433.553,428.139"/>
</g>
<g>
</g>
<g>
</g>
<g>
</g>
<g>
</g>
<g>
</g>
<g>
</g>
<g>
</g>
<g>
</g>
<g>
</g>
<g>
</g>
<g>
</g>
<g>
</g>
<g>
</g>
<g>
</g>
<g>
</g>
</svg>
