<svg width="122" height="81" viewBox="0 0 122 81" fill="none" xmlns="http://www.w3.org/2000/svg">
<path d="M17.7724 65.8626C18.2867 66.0556 18.864 66.1439 19.4425 66.118C20.0211 66.0922 20.5789 65.9531 21.0562 65.7157L62.3808 45.0683C62.803 44.8572 63.1481 44.5753 63.3864 44.2469C63.6248 43.9185 63.7493 43.5533 63.7493 43.1825C63.7493 42.8118 63.6248 42.4465 63.3864 42.1181C63.1481 41.7897 62.803 41.5078 62.3808 41.2967L21.0562 20.6493C20.5793 20.4111 20.0212 20.2717 19.4423 20.246C18.8635 20.2204 18.2859 20.3095 17.7722 20.5037C17.2585 20.6979 16.8282 20.9899 16.5279 21.3479C16.2276 21.706 16.0688 22.1165 16.0686 22.5351V63.8299C16.0685 64.2487 16.2272 64.6595 16.5276 65.0178C16.8279 65.3761 17.2584 65.6683 17.7724 65.8626Z" fill="black"/>
<path d="M105.739 17.5859C105.145 17.5859 104.576 17.8172 104.156 18.2289C103.736 18.6405 103.5 19.1989 103.5 19.781V38.4984L70.9268 19.3845C70.1745 18.9359 69.313 18.6936 68.4325 18.6829C67.552 18.6723 66.6847 18.8938 65.9213 19.3242C64.242 20.2571 63.1981 22.0626 63.1981 24.034V63.8202C63.1981 65.7917 64.242 67.5972 65.9213 68.5301C66.6848 68.9601 67.5522 69.1813 68.4327 69.1704C69.3132 69.1596 70.1746 68.9171 70.9268 68.4684L103.5 49.3559V68.0732C103.5 68.6554 103.736 69.2137 104.156 69.6254C104.576 70.0371 105.145 70.2683 105.739 70.2683C106.333 70.2683 106.902 70.0371 107.322 69.6254C107.742 69.2137 107.978 68.6554 107.978 68.0732V19.781C107.978 19.1989 107.742 18.6405 107.322 18.2289C106.902 17.8172 106.333 17.5859 105.739 17.5859Z" fill="black"/>
</svg>
