<svg width="133" height="95" viewBox="0 0 133 95" fill="none" xmlns="http://www.w3.org/2000/svg">
<path fill-rule="evenodd" clip-rule="evenodd" d="M26.307 20.7218C25.5318 20.7218 24.7883 21.0337 24.2402 21.5888C23.692 22.144 23.384 22.8969 23.384 23.682V71.0453C23.384 71.8304 23.692 72.5833 24.2402 73.1385C24.7883 73.6936 25.5318 74.0055 26.307 74.0055C27.0823 74.0055 27.8257 73.6936 28.3739 73.1385C28.9221 72.5833 29.23 71.8304 29.23 71.0453V23.682C29.23 22.8969 28.9221 22.144 28.3739 21.5888C27.8257 21.0337 27.0823 20.7218 26.307 20.7218Z" fill="black"/>
<path d="M28.6629 51.4898L65.8669 73.348C69.0238 75.201 73.0692 72.9572 73.0692 69.2214V25.5051C73.0692 21.7753 69.0238 19.5255 65.8669 21.3845L28.6629 43.2427C27.9448 43.6578 27.3479 44.2579 26.9327 44.9821C26.5175 45.7063 26.2988 46.5288 26.2988 47.3662C26.2988 48.2036 26.5175 49.0261 26.9327 49.7503C27.3479 50.4745 27.9448 51.0746 28.6629 51.4898Z" fill="black"/>
<path d="M71.3277 52.152L111.718 78.8673C112.184 79.1754 112.73 79.3559 113.296 79.3891C113.861 79.4223 114.426 79.307 114.928 79.0557C115.43 78.8043 115.851 78.4266 116.144 77.9633C116.438 77.5 116.593 76.9688 116.593 76.4273V22.9968C116.594 22.455 116.439 21.9235 116.145 21.4597C115.852 20.996 115.432 20.6178 114.929 20.3662C114.427 20.1145 113.863 19.9989 113.296 20.032C112.73 20.0651 112.185 20.2456 111.718 20.5539L71.3277 47.2691C70.9162 47.5435 70.5801 47.9087 70.3481 48.3338C70.116 48.7588 69.9949 49.2312 69.9949 49.7106C69.9949 50.19 70.116 50.6623 70.3481 51.0874C70.5801 51.5124 70.9162 51.8777 71.3277 52.152Z" fill="black"/>
</svg>
