<svg width="375" height="300" viewBox="0 0 375 300" fill="none" xmlns="http://www.w3.org/2000/svg">
<path d="M187.5 2.16938C85.4424 2.16938 2.69724 60.6001 2.69724 132.692C2.69724 169.35 24.1588 202.373 58.6011 226.085C51.0866 260.804 2.53858 274.939 5.85589 284.492C49.2693 298.858 135.245 265.512 148.284 260.342C160.89 262.258 174.087 263.227 187.5 263.227C289.558 263.227 372.303 204.785 372.303 132.692C372.303 60.6001 289.543 2.15784 187.5 2.15784V2.16938Z" fill="white"/>
<path d="M143.755 66.6H148.939V84.776H160.171V89H143.755V66.6ZM163.067 66.6H168.251V89H163.067V66.6ZM180.927 89.384C179.156 89.384 177.439 89.1493 175.775 88.68C174.132 88.1893 172.81 87.56 171.807 86.792L173.567 82.888C174.527 83.592 175.668 84.1573 176.991 84.584C178.314 85.0107 179.636 85.224 180.959 85.224C182.431 85.224 183.519 85.0107 184.223 84.584C184.927 84.136 185.279 83.5493 185.279 82.824C185.279 82.2907 185.066 81.8533 184.639 81.512C184.234 81.1493 183.7 80.8613 183.039 80.648C182.399 80.4347 181.524 80.2 180.415 79.944C178.708 79.5387 177.311 79.1333 176.223 78.728C175.135 78.3227 174.196 77.672 173.407 76.776C172.639 75.88 172.255 74.6853 172.255 73.192C172.255 71.8907 172.607 70.7173 173.311 69.672C174.015 68.6053 175.071 67.7627 176.479 67.144C177.908 66.5253 179.647 66.216 181.695 66.216C183.124 66.216 184.522 66.3867 185.887 66.728C187.252 67.0693 188.447 67.56 189.471 68.2L187.871 72.136C185.802 70.9627 183.732 70.376 181.663 70.376C180.212 70.376 179.135 70.6107 178.431 71.08C177.748 71.5493 177.407 72.168 177.407 72.936C177.407 73.704 177.802 74.28 178.591 74.664C179.402 75.0267 180.628 75.3893 182.271 75.752C183.978 76.1573 185.375 76.5627 186.463 76.968C187.551 77.3733 188.479 78.0133 189.247 78.888C190.036 79.7627 190.431 80.9467 190.431 82.44C190.431 83.72 190.068 84.8933 189.343 85.96C188.639 87.0053 187.572 87.8373 186.143 88.456C184.714 89.0747 182.975 89.384 180.927 89.384ZM198.301 70.824H191.133V66.6H210.653V70.824H203.485V89H198.301V70.824ZM227.069 84.2H216.669L214.685 89H209.373L219.357 66.6H224.477L234.493 89H229.053L227.069 84.2ZM225.437 80.264L221.885 71.688L218.333 80.264H225.437ZM64.3171 105.6H69.5011V128H64.3171V105.6ZM95.3611 105.6V128H91.1051L79.9371 114.4V128H74.8171V105.6H79.1051L90.2411 119.2V105.6H95.3611ZM115.797 116.448H120.533V125.536C119.317 126.453 117.909 127.157 116.309 127.648C114.709 128.139 113.098 128.384 111.477 128.384C109.152 128.384 107.061 127.893 105.205 126.912C103.349 125.909 101.888 124.533 100.821 122.784C99.7755 121.013 99.2529 119.019 99.2529 116.8C99.2529 114.581 99.7755 112.597 100.821 110.848C101.888 109.077 103.36 107.701 105.237 106.72C107.114 105.717 109.226 105.216 111.573 105.216C113.536 105.216 115.317 105.547 116.917 106.208C118.517 106.869 119.861 107.829 120.949 109.088L117.621 112.16C116.021 110.475 114.09 109.632 111.829 109.632C110.4 109.632 109.13 109.931 108.021 110.528C106.912 111.125 106.048 111.968 105.429 113.056C104.81 114.144 104.501 115.392 104.501 116.8C104.501 118.187 104.81 119.424 105.429 120.512C106.048 121.6 106.901 122.453 107.989 123.072C109.098 123.669 110.357 123.968 111.765 123.968C113.258 123.968 114.602 123.648 115.797 123.008V116.448ZM139.62 128L135.3 121.76H135.044H130.532V128H125.348V105.6H135.044C137.028 105.6 138.746 105.931 140.196 106.592C141.668 107.253 142.799 108.192 143.588 109.408C144.378 110.624 144.772 112.064 144.772 113.728C144.772 115.392 144.367 116.832 143.556 118.048C142.767 119.243 141.636 120.16 140.164 120.8L145.188 128H139.62ZM139.524 113.728C139.524 112.469 139.119 111.509 138.308 110.848C137.498 110.165 136.314 109.824 134.756 109.824H130.532V117.632H134.756C136.314 117.632 137.498 117.291 138.308 116.608C139.119 115.925 139.524 114.965 139.524 113.728ZM166.224 123.84V128H148.88V105.6H165.808V109.76H154.032V114.624H164.432V118.656H154.032V123.84H166.224ZM170.348 105.6H180.524C182.956 105.6 185.1 106.069 186.956 107.008C188.834 107.925 190.284 109.227 191.308 110.912C192.354 112.597 192.876 114.56 192.876 116.8C192.876 119.04 192.354 121.003 191.308 122.688C190.284 124.373 188.834 125.685 186.956 126.624C185.1 127.541 182.956 128 180.524 128H170.348V105.6ZM180.268 123.744C182.508 123.744 184.29 123.125 185.612 121.888C186.956 120.629 187.628 118.933 187.628 116.8C187.628 114.667 186.956 112.981 185.612 111.744C184.29 110.485 182.508 109.856 180.268 109.856H175.532V123.744H180.268ZM196.786 105.6H201.97V128H196.786V105.6ZM224.63 123.84V128H207.286V105.6H224.214V109.76H212.438V114.624H222.838V118.656H212.438V123.84H224.63ZM249.299 105.6V128H245.043L233.875 114.4V128H228.755V105.6H233.043L244.179 119.2V105.6H249.299ZM259.238 109.824H252.07V105.6H271.59V109.824H264.422V128H259.238V109.824ZM291.724 123.84V128H274.38V105.6H291.308V109.76H279.532V114.624H289.932V118.656H279.532V123.84H291.724ZM303.208 128.384C301.438 128.384 299.72 128.149 298.056 127.68C296.414 127.189 295.091 126.56 294.088 125.792L295.848 121.888C296.808 122.592 297.95 123.157 299.272 123.584C300.595 124.011 301.918 124.224 303.24 124.224C304.712 124.224 305.8 124.011 306.504 123.584C307.208 123.136 307.56 122.549 307.56 121.824C307.56 121.291 307.347 120.853 306.92 120.512C306.515 120.149 305.982 119.861 305.32 119.648C304.68 119.435 303.806 119.2 302.696 118.944C300.99 118.539 299.592 118.133 298.504 117.728C297.416 117.323 296.478 116.672 295.688 115.776C294.92 114.88 294.536 113.685 294.536 112.192C294.536 110.891 294.888 109.717 295.592 108.672C296.296 107.605 297.352 106.763 298.76 106.144C300.19 105.525 301.928 105.216 303.976 105.216C305.406 105.216 306.803 105.387 308.168 105.728C309.534 106.069 310.728 106.56 311.752 107.2L310.152 111.136C308.083 109.963 306.014 109.376 303.944 109.376C302.494 109.376 301.416 109.611 300.712 110.08C300.03 110.549 299.688 111.168 299.688 111.936C299.688 112.704 300.083 113.28 300.872 113.664C301.683 114.027 302.91 114.389 304.552 114.752C306.259 115.157 307.656 115.563 308.744 115.968C309.832 116.373 310.76 117.013 311.528 117.888C312.318 118.763 312.712 119.947 312.712 121.44C312.712 122.72 312.35 123.893 311.624 124.96C310.92 126.005 309.854 126.837 308.424 127.456C306.995 128.075 305.256 128.384 303.208 128.384Z" fill="#2D2D2D"/>
<path d="M193.813 169.175L179.5 170.969L178.988 173.344L181.8 173.863C183.638 174.3 184 174.963 183.6 176.794L178.988 198.469C177.775 204.075 179.644 206.713 184.038 206.713C187.444 206.713 191.4 205.138 193.194 202.975L193.744 200.375C192.494 201.475 190.669 201.913 189.456 201.913C187.738 201.913 187.113 200.706 187.556 198.581L193.813 169.175Z" fill="#2D2D2D"/>
<path d="M188 162.375C191.452 162.375 194.25 159.577 194.25 156.125C194.25 152.673 191.452 149.875 188 149.875C184.548 149.875 181.75 152.673 181.75 156.125C181.75 159.577 184.548 162.375 188 162.375Z" fill="#2D2D2D"/>
</svg>
