<svg width="49" height="53" viewBox="0 0 49 53" fill="none" xmlns="http://www.w3.org/2000/svg">
<path d="M1.79306 52.3581C2.31298 52.5786 2.89674 52.6795 3.48168 52.65C4.06661 52.6204 4.63063 52.4616 5.1132 52.1904L46.8962 28.6035C47.3231 28.3623 47.672 28.0403 47.913 27.6651C48.154 27.29 48.2799 26.8727 48.2799 26.4492C48.2799 26.0257 48.154 25.6085 47.913 25.2333C47.672 24.8581 47.3231 24.5361 46.8962 24.295L5.1132 0.708045C4.631 0.435989 4.06672 0.276679 3.48146 0.247363C2.89619 0.218047 2.31224 0.319843 1.79283 0.541728C1.27343 0.763614 0.838358 1.09713 0.534737 1.50617C0.231115 1.91521 0.0705104 2.38419 0.0703125 2.86232V50.0361C0.0702159 50.5145 0.230705 50.9838 0.534384 51.3931C0.838064 51.8024 1.27335 52.1362 1.79306 52.3581Z" fill="black"/>
</svg>
