<svg width="50" height="53" viewBox="0 0 50 53" fill="none" xmlns="http://www.w3.org/2000/svg">
<path fill-rule="evenodd" clip-rule="evenodd" d="M2.94378 0.771362C2.16605 0.771362 1.42018 1.07576 0.870242 1.61758C0.320305 2.1594 0.0113525 2.89427 0.0113525 3.66052V49.8871C0.0113525 50.6533 0.320305 51.3882 0.870242 51.93C1.42018 52.4719 2.16605 52.7763 2.94378 52.7763C3.72151 52.7763 4.46739 52.4719 5.01732 51.93C5.56726 51.3882 5.87621 50.6533 5.87621 49.8871V3.66052C5.87621 2.89427 5.56726 2.1594 5.01732 1.61758C4.46739 1.07576 3.72151 0.771362 2.94378 0.771362Z" fill="black"/>
<path d="M5.30725 30.8009L42.6312 52.1344C45.7982 53.9431 49.8567 51.7531 49.8567 48.1069V5.43982C49.8567 1.79947 45.7982 -0.39629 42.6312 1.4181L5.30725 22.7517C4.58683 23.1569 3.98798 23.7426 3.57146 24.4494C3.15493 25.1562 2.93555 25.959 2.93555 26.7763C2.93555 27.5936 3.15493 28.3963 3.57146 29.1032C3.98798 29.81 4.58683 30.3957 5.30725 30.8009Z" fill="black"/>
</svg>
