<svg width="45" height="53" viewBox="0 0 45 53" fill="none" xmlns="http://www.w3.org/2000/svg">
<path d="M42.4945 0.476074C41.9052 0.476074 41.34 0.705825 40.9233 1.11478C40.5066 1.52374 40.2725 2.07841 40.2725 2.65676V21.2512L7.94606 2.26287C7.19942 1.81714 6.34448 1.57642 5.47061 1.56588C4.59674 1.55533 3.73602 1.77533 2.97843 2.2029C1.3119 3.12969 0.275879 4.92331 0.275879 6.88183V46.4067C0.275879 48.3653 1.3119 50.1589 2.97843 51.0857C3.73619 51.5129 4.59696 51.7326 5.4708 51.7218C6.34464 51.711 7.19949 51.4701 7.94606 51.0243L40.2725 32.0374V50.6318C40.2725 51.2102 40.5066 51.7648 40.9233 52.1738C41.34 52.5827 41.9052 52.8125 42.4945 52.8125C43.0839 52.8125 43.649 52.5827 44.0658 52.1738C44.4825 51.7648 44.7166 51.2102 44.7166 50.6318V2.65676C44.7166 2.07841 44.4825 1.52374 44.0658 1.11478C43.649 0.705825 43.0839 0.476074 42.4945 0.476074Z" fill="black"/>
</svg>
