<svg id="Capa_1" enable-background="new 0 0 495 495" height="512" viewBox="0 0 495 495" width="512" xmlns="http://www.w3.org/2000/svg"><g><g><path d="m343.5 375.5c53.019 0 96-42.981 96-96v-8.5h-384v8.5c0 53.019 42.981 96 96 96v10h192z" fill="#766fb5"/><path d="m416.5 271v8.5c0 53.019-42.981 96-96 96v10h23v-10c53.019 0 96-42.981 96-96v-8.5z" fill="#695fb1"/></g><path d="m327.5 423.5h-160c-8.837 0-16-7.163-16-16v-32h192v32c0 8.837-7.163 16-16 16z" fill="#6a60b2"/><path d="m320.5 375.5v32c0 8.836-7.164 16-16 16h23c8.836 0 16-7.164 16-16v-32z" fill="#5c529f"/><path d="m471.5 151.5v-5h-448v5l14.559 113.592c.818 8.179 7.701 14.408 15.921 14.408h387.04c8.22 0 15.103-6.229 15.921-14.408z" fill="#6a60b2"/><path d="m448.5 146.5v5l-14.559 113.592c-.818 8.179-7.701 14.408-15.921 14.408h23c8.22 0 15.103-6.229 15.921-14.408l14.559-113.592v-5z" fill="#5c529f"/><path d="m479.5 151.5h-464c-4.418 0-8-3.582-8-8v-40c0-17.673 14.327-32 32-32h416c17.673 0 32 14.327 32 32v40c0 4.418-3.582 8-8 8z" fill="#766fb5"/><path d="m455.5 71.5h-23c17.673 0 32 14.327 32 32v40c0 4.418-3.582 8-8 8h23c4.418 0 8-3.582 8-8v-40c0-17.673-14.327-32-32-32z" fill="#695fb1"/></g><path d="m455.5 64h-416c-21.78 0-39.5 17.72-39.5 39.5v40c0 8.547 6.953 15.5 15.5 15.5h1.4l13.709 106.952c1.05 10.035 8.235 17.976 17.619 20.321 3.34 51.442 44.426 92.758 95.773 96.453v24.774c0 12.958 10.542 23.5 23.5 23.5h22.018c4.143 0 7.5-3.358 7.5-7.5s-3.357-7.5-7.5-7.5h-22.019c-4.686 0-8.5-3.813-8.5-8.5v-24.5h177v24.5c0 4.687-3.814 8.5-8.5 8.5h-107.982c-4.143 0-7.5 3.358-7.5 7.5s3.357 7.5 7.5 7.5h107.982c12.958 0 23.5-10.542 23.5-23.5v-24.774c51.347-3.695 92.433-45.011 95.772-96.453 9.384-2.345 16.569-10.286 17.619-20.321l13.709-106.952h1.4c8.547 0 15.5-6.953 15.5-15.5v-40c0-21.78-17.72-39.5-39.5-39.5zm-112 304h-192c-46.272 0-84.359-35.698-88.179-81h368.358c-3.82 45.302-41.907 81-88.179 81zm109.095-128h-334.095c-4.143 0-7.5 3.358-7.5 7.5s3.357 7.5 7.5 7.5h332.172l-1.171 9.139c-.009.069-.017.139-.023.208-.436 4.363-4.071 7.653-8.457 7.653h-387.042c-4.386 0-8.021-3.29-8.457-7.653-.007-.069-.015-.139-.023-.208l-1.171-9.139h44.172c4.143 0 7.5-3.358 7.5-7.5s-3.357-7.5-7.5-7.5h-46.095l-10.382-81h430.955zm27.405-96.5c0 .276-.225.5-.5.5h-464c-.275 0-.5-.224-.5-.5v-40c0-13.509 10.99-24.5 24.5-24.5h416c13.51 0 24.5 10.991 24.5 24.5z"/></svg>