<svg id="Layer_3" enable-background="new 0 0 64 64" height="512" viewBox="0 0 64 64" width="512" xmlns="http://www.w3.org/2000/svg"><g><g><path d="m43 44h-22c-6.627 0-12-5.373-12-12v-6c0-2.209 1.791-4 4-4h38c2.209 0 4 1.791 4 4v6c0 6.627-5.373 12-12 12z" fill="#758190"/><path d="m9 28h46v6h-46z" fill="#c1c8d1"/><path d="m24 34 6-6h-10l-6 6z" fill="#a8b0bc"/><path d="m44 34 6-6h-10l-6 6z" fill="#a8b0bc"/><path d="m19.551 13.027c-.35-.595-.551-1.287-.551-2.027 0-2.209 1.791-4 4-4 4.621 0 9.196-.915 13.462-2.692l5.538-2.308 2.382 4.764c.406.813.618 1.709.618 2.618 0 1.337-.456 2.606-1.253 3.619" fill="#d5cec2"/><path d="m47.946 17.393c-.598-.253-1.256-.393-1.946-.393h-28c-.732 0-1.428.158-2.055.441l.055-.025v-.416c0-2.209 1.791-4 4-4h24c2.209 0 4 1.791 4 4v.416z" fill="#e7e4dd"/><path d="m51 22c0-2.761-2.239-5-5-5h-28c-2.761 0-5 2.239-5 5z" fill="#d5cec2"/><path d="m21 44v2c0 1.105.895 2 2 2h18c1.105 0 2-.895 2-2v-2" fill="#c1c8d1"/><path d="m60 54h-38.84c-1.824 0-3.643-.582-4.991-1.811-1.464-1.336-3.682-2.189-6.169-2.189-4.418 0-8 2.686-8 6s3.582 6 8 6c2.487 0 4.705-.853 6.169-2.189 1.349-1.229 3.167-1.811 4.991-1.811h38.84c1.105 0 2-.895 2-2 0-1.105-.895-2-2-2z" fill="#e7e4dd"/></g><g><path d="m20 44.947v1.052c0 1.653 1.346 2.999 3 2.999h18c1.654 0 3-1.346 3-2.999v-1.052c6.701-.514 12-6.118 12-12.948v-6c0-2.441-1.76-4.471-4.076-4.907-.28-1.838-1.393-3.402-2.944-4.294-.089-2.192-1.588-4.008-3.618-4.587.402-.887.638-1.849.638-2.83-.001-1.059-.251-2.118-.724-3.064l-2.382-4.764c-.235-.47-.791-.676-1.279-.476l-5.539 2.308c-4.164 1.735-8.564 2.615-13.076 2.615-2.757 0-5 2.243-5 5 0 .46.065.914.188 1.353-1.801.705-3.086 2.419-3.168 4.447-1.551.892-2.664 2.456-2.944 4.294-2.317.434-4.076 2.465-4.076 4.906v6c0 6.829 5.298 12.434 12 12.947zm20.999 2.051h-17.999c-.552 0-1-.448-1-.999v-1.001h20v1.001c-.001.551-.449.999-1.001.999zm2-4h-21.999c-5.025 0-9.264-3.39-10.574-8h43.147c-1.31 4.61-5.549 8-10.574 8zm-32.999-10.998v-3h7.586l-4.001 4h-3.535c-.03-.331-.05-.663-.05-1zm43.948.999h-7.534l4-4h3.584v3c.001.338-.02.67-.05 1zm-10.363 0h-7.17l4-4h7.171zm-10 0h-7.17l4-4h7.171zm-10 0h-7.17l4-4h7.171zm-5.585-14.999h28c1.858 0 3.41 1.28 3.857 3h-35.716c.447-1.721 2-3 3.859-3zm5-10c4.778 0 9.437-.932 13.846-2.769l4.677-1.949 1.964 3.929c.335.67.513 1.421.513 2.17 0 .93-.286 1.838-.787 2.618h-23.019c-.115-.321-.194-.654-.194-.999 0-1.655 1.346-3 3-3zm-3 6h24c1.326 0 2.44.87 2.835 2.065-.274-.039-.551-.065-.835-.065h-28c-.284 0-.562.027-.836.065.395-1.195 1.51-2.065 2.836-2.065zm-7 9h38c1.654 0 3 1.346 3 3v1h-44v-1c0-1.655 1.345-3 3-3z"/><path d="m60 52.998h-38.84c-1.688 0-3.221-.55-4.316-1.549-1.708-1.558-4.202-2.451-6.843-2.451-4.963 0-9 3.141-9 7.001 0 3.859 4.037 7 9 7 2.642 0 5.136-.894 6.843-2.45 1.095-.999 2.628-1.549 4.316-1.549h38.84c1.654 0 3-1.347 3-3.001s-1.346-3.001-3-3.001zm0 4.002h-38.84c-2.188 0-4.199.735-5.665 2.071-1.343 1.225-3.346 1.928-5.495 1.928-3.86 0-7-2.243-7-5 0-2.758 3.14-5.001 7-5.001 2.148 0 4.152.703 5.496 1.929 1.465 1.336 3.477 2.071 5.664 2.071h38.84c.551 0 1 .449 1 1.002 0 .551-.449 1-1 1z"/></g></g></svg>