<?xml version="1.0" encoding="iso-8859-1"?>
<!-- Generator: Adobe Illustrator 19.0.0, SVG Export Plug-In . SVG Version: 6.00 Build 0)  -->
<svg version="1.1" id="Layer_1" xmlns="http://www.w3.org/2000/svg" xmlns:xlink="http://www.w3.org/1999/xlink" x="0px" y="0px"
	 viewBox="0 0 512 512" style="enable-background:new 0 0 512 512;" xml:space="preserve">
<path style="fill:#4E342E;" d="M366.956,332.8c-14.933-10.761-32.794-16.717-51.2-17.067v102.4H196.289v-67.755
	c-18.398-0.375-36.258-6.323-51.2-17.067c-0.043,0.742-0.043,1.476,0,2.219v142.336c0,14.14,11.46,25.6,25.6,25.6h170.667
	c14.14,0,25.6-11.46,25.6-25.6V335.104C366.99,334.336,366.99,333.568,366.956,332.8z"/>
<path style="fill:#795548;" d="M332.822,335.104v142.763c0,14.14-11.46,25.6-25.6,25.6H170.689c-14.14,0-25.6-11.46-25.6-25.6
	V335.104c-0.043-0.768-0.043-1.536,0-2.304c14.942,10.743,32.802,16.691,51.2,17.067v68.267h119.467v-95.317
	c6.067,2.637,11.793,5.982,17.067,9.984C332.856,333.568,332.856,334.336,332.822,335.104z"/>
<path d="M341.355,512H170.689c-18.85,0-34.133-15.283-34.133-34.133V335.104c-0.06-1.05-0.06-2.108,0-3.157
	c0.495-4.685,4.702-8.081,9.387-7.586c1.553,0.162,3.021,0.751,4.267,1.698c13.414,9.788,29.483,15.292,46.08,15.787
	c4.71,0,8.533,3.823,8.533,8.533V409.6h102.4v-94.379c0.009-2.321,0.964-4.54,2.645-6.144c1.664-1.613,3.917-2.475,6.229-2.389
	c20.173,0.572,39.697,7.27,55.979,19.2c1.869,1.417,3.081,3.55,3.328,5.888c0.06,1.109,0.06,2.219,0,3.328v142.763
	C375.404,496.683,360.172,511.949,341.355,512z M153.622,348.16v129.707c0,9.429,7.637,17.067,17.067,17.067h170.667
	c9.429,0,17.067-7.637,17.067-17.067V337.152c-10.257-6.818-21.931-11.221-34.133-12.885v93.867c0,4.71-3.823,8.533-8.533,8.533
	H196.289c-4.71,0-8.533-3.823-8.533-8.533V358.4C175.86,357.009,164.306,353.545,153.622,348.16z"/>
<path style="fill:#9E9E9E;" d="M349.889,268.544C327.19,227.925,290.155,157.611,290.155,128V85.333h-68.267V128
	c0,29.525-36.779,99.925-59.733,140.544c-10.923,19.678-16.785,41.754-17.067,64.256c14.942,10.743,32.802,16.691,51.2,17.067
	v68.267h119.467V315.221c8.371,0.307,16.657,1.715,24.661,4.181c9.583,2.833,18.569,7.373,26.539,13.397
	C366.648,310.306,360.777,288.23,349.889,268.544z"/>
<path style="fill:#F5F5F5;" d="M340.417,319.403c-8.004-2.466-16.29-3.874-24.661-4.181v102.912H196.289v-67.755
	c-18.398-0.375-36.258-6.323-51.2-17.067c0.265-22.528,6.127-44.638,17.067-64.341c22.699-40.619,59.733-110.933,59.733-140.544
	V85.333h42.667V128c0,29.525,36.779,99.925,59.733,140.544C333.01,284.245,338.488,301.542,340.417,319.403z"/>
<path d="M315.755,426.667H196.289c-4.71,0-8.533-3.823-8.533-8.533V358.4c-17.263-1.869-33.724-8.286-47.701-18.603
	c-2.227-1.63-3.533-4.233-3.499-6.997c0.393-23.919,6.699-47.369,18.347-68.267c37.205-66.56,58.453-116.309,58.453-136.533V85.333
	c0-4.71,3.823-8.533,8.533-8.533h68.267c4.71,0,8.533,3.823,8.533,8.533V128c0,20.224,21.248,69.973,58.368,136.533
	c11.682,20.89,18.014,44.339,18.432,68.267c0.051,4.71-3.738,8.567-8.448,8.619c-1.877,0.017-3.703-0.58-5.205-1.707
	c-10.982-8.277-23.919-13.602-37.547-15.445v93.867C324.289,422.844,320.466,426.667,315.755,426.667z M204.822,409.6h102.4v-94.379
	c0.009-2.321,0.964-4.54,2.645-6.144c1.63-1.664,3.908-2.534,6.229-2.389c14.199,0.503,28.143,3.925,40.96,10.069
	c-2.27-15.343-7.305-30.14-14.848-43.691C314.561,223.232,281.622,158.037,281.622,128V93.867h-51.2V128
	c0,30.037-32.939,95.232-60.587,145.067c-9.583,17.007-15.13,35.977-16.213,55.467c12.749,8.226,27.503,12.826,42.667,13.312
	c4.71,0,8.533,3.823,8.533,8.533L204.822,409.6L204.822,409.6z"/>
<path style="fill:#9E9E9E;" d="M221.889,8.533h68.267c9.429,0,17.067,7.637,17.067,17.067v51.2c0,4.71-3.823,8.533-8.533,8.533
	h-85.333c-4.71,0-8.533-3.823-8.533-8.533V25.6C204.822,16.171,212.46,8.533,221.889,8.533z"/>
<path style="fill:#F5F5F5;" d="M221.889,8.533h34.133c9.429,0,17.067,7.637,17.067,17.067v51.2c0,4.71-3.823,8.533-8.533,8.533
	h-51.2c-4.71,0-8.533-3.823-8.533-8.533V25.6C204.822,16.171,212.46,8.533,221.889,8.533z"/>
<path d="M298.689,93.867h-85.333c-9.429,0-17.067-7.637-17.067-17.067V25.6c0-14.14,11.46-25.6,25.6-25.6h68.267
	c14.14,0,25.6,11.46,25.6,25.6v51.2C315.755,86.229,308.11,93.867,298.689,93.867z M221.889,17.067c-4.71,0-8.533,3.823-8.533,8.533
	v51.2h85.333V25.6c0-4.71-3.823-8.533-8.533-8.533H221.889z"/>
<path d="M307.222,59.733h-102.4c-4.71,0-8.533-3.823-8.533-8.533s3.823-8.533,8.533-8.533h102.4c4.71,0,8.533,3.823,8.533,8.533
	S311.933,59.733,307.222,59.733z"/>
<path style="fill:#FFB301;" d="M315.755,315.221v102.912H196.289v-102.4c0-23.561,19.106-42.667,42.667-42.667h34.133
	C296.453,273.067,315.474,291.857,315.755,315.221z"/>
<path style="fill:#FEC108;" d="M281.622,315.221v102.912h-85.333v-102.4c0-23.552,13.653-42.667,30.464-42.667h24.405
	C267.884,273.067,281.622,291.925,281.622,315.221z"/>
<path d="M315.755,426.667H196.289c-4.71,0-8.533-3.823-8.533-8.533v-102.4c0-28.279,22.921-51.2,51.2-51.2h34.133
	c28.049,0,50.876,22.562,51.2,50.603l0,0v102.997C324.289,422.844,320.466,426.667,315.755,426.667z M204.822,409.6h102.4v-94.293
	c-0.23-18.688-15.445-33.707-34.133-33.707h-34.133c-18.85,0-34.133,15.283-34.133,34.133L204.822,409.6L204.822,409.6z"/>
<path d="M145.089,341.333c-4.71,0-8.533-3.823-8.533-8.533s3.823-8.533,8.533-8.533s8.533,3.823,8.533,8.533
	S149.799,341.333,145.089,341.333z"/>
<path d="M366.956,341.333c-4.71,0-8.533-3.823-8.533-8.533s3.823-8.533,8.533-8.533s8.533,3.823,8.533,8.533
	S371.666,341.333,366.956,341.333z"/>
<path d="M281.622,349.867h-51.2c-4.71,0-8.533-3.823-8.533-8.533s3.823-8.533,8.533-8.533h51.2c4.71,0,8.533,3.823,8.533,8.533
	S286.333,349.867,281.622,349.867z"/>
<path d="M281.622,384h-51.2c-4.71,0-8.533-3.823-8.533-8.533c0-4.71,3.823-8.533,8.533-8.533h51.2c4.71,0,8.533,3.823,8.533,8.533
	C290.155,380.177,286.333,384,281.622,384z"/>
<g>
</g>
<g>
</g>
<g>
</g>
<g>
</g>
<g>
</g>
<g>
</g>
<g>
</g>
<g>
</g>
<g>
</g>
<g>
</g>
<g>
</g>
<g>
</g>
<g>
</g>
<g>
</g>
<g>
</g>
</svg>
