<?xml version="1.0" encoding="iso-8859-1"?>
<!-- Generator: Adobe Illustrator 19.0.0, SVG Export Plug-In . SVG Version: 6.00 Build 0)  -->
<svg version="1.1" id="Capa_1" xmlns="http://www.w3.org/2000/svg" xmlns:xlink="http://www.w3.org/1999/xlink" x="0px" y="0px"
	 viewBox="0 0 512 512" style="enable-background:new 0 0 512 512;" xml:space="preserve">
<path style="fill:#B39A7C;" d="M427.5,504.5H256H84.5c0,0-24.5-133.131-24.5-248.5S84.5,7.5,84.5,7.5H256h171.5
	c0,0,24.5,133.092,24.5,248.5C452,371.369,427.5,504.5,427.5,504.5z"/>
<path style="fill:#957755;" d="M427.5,7.5h-70c0,0,24.5,133.092,24.5,248.5c0,32.796-1.98,67.028-4.814,99.228
	c-3.833,43.552-40.381,76.918-84.101,76.918H73.379C79.105,475.185,84.5,504.5,84.5,504.5h273h14h56c0,0,24.5-133.131,24.5-248.5
	C452,140.592,427.5,7.5,427.5,7.5z"/>
<circle style="fill:#D8D8DA;" cx="256" cy="256" r="125.75"/>
<circle style="fill:#FFFFFF;" cx="256" cy="256" r="104"/>
<g>
	<path style="fill:#FEDA44;" d="M293.622,254.714c9.55-9.55,12.69-23.073,9.442-35.247c-12.173-3.249-25.697-0.108-35.247,9.442
		c-9.55,9.55-12.69,23.073-9.442,35.247C270.548,267.404,284.072,264.264,293.622,254.714z"/>
	<path style="fill:#FEDA44;" d="M218.378,254.714c-9.55-9.55-12.69-23.073-9.442-35.247c12.173-3.249,25.697-0.108,35.247,9.442
		s12.69,23.073,9.442,35.247C241.452,267.404,227.928,264.264,218.378,254.714z"/>
	<path style="fill:#FEDA44;" d="M293.622,298.911c9.55-9.55,12.69-23.073,9.442-35.247c-12.173-3.249-25.697-0.108-35.247,9.442
		c-9.55,9.55-12.69,23.073-9.442,35.247C270.548,311.601,284.072,308.461,293.622,298.911z"/>
	<path style="fill:#FEDA44;" d="M218.378,298.911c-9.55-9.55-12.69-23.073-9.442-35.247c12.173-3.249,25.697-0.108,35.247,9.442
		s12.69,23.073,9.442,35.247C241.452,311.601,227.928,308.461,218.378,298.911z"/>
	<path style="fill:#FEDA44;" d="M274.247,205.243c0-13.506-7.342-25.289-18.247-31.6c-10.905,6.311-18.247,18.094-18.247,31.6
		c0,13.506,7.342,25.289,18.247,31.6C266.905,230.532,274.247,218.749,274.247,205.243z"/>
</g>
<g>
	<path style="fill:#EEBF00;" d="M274.247,205.243c0-13.506-7.342-25.289-18.247-31.6v63.199
		C266.905,230.532,274.247,218.749,274.247,205.243z"/>
	<path style="fill:#EEBF00;" d="M293.622,254.714c9.55-9.55,12.69-23.073,9.442-35.247l-44.689,44.689
		C270.548,267.404,284.072,264.264,293.622,254.714z"/>
	<path style="fill:#EEBF00;" d="M218.378,254.714c-9.55-9.55-12.69-23.073-9.442-35.247l44.689,44.689
		C241.452,267.404,227.928,264.264,218.378,254.714z"/>
	<path style="fill:#EEBF00;" d="M293.622,298.911c9.55-9.55,12.69-23.073,9.442-35.247l-44.689,44.689
		C270.548,311.601,284.072,308.461,293.622,298.911z"/>
	<path style="fill:#EEBF00;" d="M218.378,298.911c-9.55-9.55-12.69-23.073-9.442-35.247l44.689,44.689
		C241.452,311.601,227.928,308.461,218.378,298.911z"/>
</g>
<path d="M310.31,217.534l-1.118-4.193l-4.194-1.119c-3.71-0.99-7.542-1.492-11.39-1.492c-4.294,0-8.491,0.617-12.497,1.798
	c0.405-2.389,0.637-4.821,0.637-7.284c0-15.646-8.427-30.242-21.99-38.091L256,164.979l-3.757,2.174
	c-13.563,7.849-21.99,22.444-21.99,38.091c0,2.463,0.232,4.895,0.637,7.284c-4.006-1.181-8.204-1.798-12.497-1.798
	c-3.848,0-7.68,0.502-11.39,1.492l-4.194,1.119l-1.118,4.193c-3.561,13.341-0.59,27.561,7.732,38.322
	c-0.811,0.168-1.619,0.348-2.419,0.562l-4.194,1.118l-1.118,4.194c-4.041,15.143,0.322,31.422,11.384,42.484
	c8.304,8.304,19.348,12.876,31.096,12.876c1.448,0,2.892-0.094,4.33-0.236v21.502h15v-21.501c1.438,0.141,2.882,0.236,4.33,0.236
	c0.001,0,0.001,0,0.002,0c11.747,0,22.79-4.573,31.094-12.876c11.062-11.063,15.425-27.342,11.384-42.484l-1.118-4.194L305,256.419
	c-0.8-0.214-1.609-0.394-2.419-0.562C310.9,245.095,313.87,230.875,310.31,217.534z M296.642,225.887
	c0.89,8.614-2.115,17.316-8.323,23.523c-5.471,5.472-12.747,8.484-20.489,8.484c-1.015,0-2.026-0.053-3.032-0.158
	c-0.891-8.613,2.115-17.316,8.323-23.523c5.47-5.471,12.746-8.483,20.487-8.483C294.622,225.729,295.635,225.782,296.642,225.887z
	 M256,182.725c6.718,5.462,10.747,13.74,10.747,22.519S262.718,222.3,256,227.762c-6.718-5.462-10.747-13.74-10.747-22.519
	S249.282,188.187,256,182.725z M215.358,225.887c1.007-0.104,2.02-0.157,3.034-0.157c7.741,0,15.018,3.013,20.487,8.483
	c6.208,6.207,9.214,14.91,8.323,23.523c-1.006,0.105-2.018,0.158-3.032,0.158c-7.742,0-15.019-3.013-20.489-8.484
	C217.474,243.203,214.469,234.501,215.358,225.887z M247.203,301.934c-1.006,0.104-2.019,0.157-3.033,0.157
	c-7.742,0-15.019-3.013-20.488-8.483c-6.207-6.206-9.212-14.91-8.323-23.524c1.007-0.104,2.02-0.157,3.033-0.157
	c7.742,0,15.019,3.013,20.488,8.482C245.088,284.617,248.093,293.32,247.203,301.934z M288.318,293.607
	c-5.471,5.471-12.746,8.483-20.486,8.483h-0.001c-1.015,0-2.028-0.053-3.034-0.157c-0.89-8.613,2.115-17.316,8.323-23.524
	c5.47-5.471,12.746-8.483,20.488-8.483c1.014,0,2.026,0.053,3.033,0.157C297.53,278.697,294.525,287.401,288.318,293.607z"/>
<path d="M434.876,6.143L433.745,0H78.254l-1.13,6.143C76.878,7.48,52.5,141.273,52.5,256s24.378,248.52,24.624,249.857l1.13,6.143
	h355.492l1.13-6.143C435.122,504.52,459.5,370.727,459.5,256C459.5,141.234,435.122,7.479,434.876,6.143z M426.522,463.858h-8.35v15
	h6.03c-1.242,7.805-2.28,13.978-2.997,18.142H90.795c-0.717-4.164-1.755-10.336-2.997-18.142h6.032v-15h-8.352
	C78.255,415.85,67.5,331.661,67.5,256c0-75.046,10.581-158.482,17.801-206.681h8.529v-15h-6.219
	c1.325-8.366,2.431-14.948,3.184-19.319h330.411c0.753,4.371,1.859,10.953,3.184,19.319h-6.218v15h8.529
	C433.92,97.51,444.5,180.932,444.5,256C444.5,331.661,433.745,415.85,426.522,463.858z"/>
<rect x="284.62" y="34.32" width="31.798" height="15"/>
<rect x="240.1" y="34.32" width="31.798" height="15"/>
<rect x="329.14" y="34.32" width="31.798" height="15"/>
<rect x="195.58" y="34.32" width="31.798" height="15"/>
<rect x="151.07" y="34.32" width="31.798" height="15"/>
<rect x="373.65" y="34.32" width="31.799" height="15"/>
<rect x="106.55" y="34.32" width="31.798" height="15"/>
<rect x="329.14" y="463.86" width="31.798" height="15"/>
<rect x="284.62" y="463.86" width="31.798" height="15"/>
<rect x="373.65" y="463.86" width="31.799" height="15"/>
<rect x="151.07" y="463.86" width="31.798" height="15"/>
<rect x="106.55" y="463.86" width="31.798" height="15"/>
<rect x="195.58" y="463.86" width="31.798" height="15"/>
<rect x="240.1" y="463.86" width="31.798" height="15"/>
<path d="M256,122.753c-73.473,0-133.247,59.774-133.247,133.247S182.527,389.247,256,389.247S389.247,329.473,389.247,256
	S329.473,122.753,256,122.753z M256,374.247c-65.201,0-118.247-53.046-118.247-118.247S190.799,137.753,256,137.753
	S374.247,190.799,374.247,256S321.201,374.247,256,374.247z"/>
<g>
	<path style="fill:#FFFFFF;" d="M99.224,153.714l-14.922-1.529c2.615-25.519,6.101-52.517,10.358-80.246l14.826,2.277
		C105.267,101.697,101.813,128.444,99.224,153.714z"/>
	<path style="fill:#FFFFFF;" d="M96.467,184.148l-14.955-1.166c0.523-6.7,1.124-13.637,1.785-20.616l14.934,1.416
		C97.576,170.679,96.982,177.531,96.467,184.148z"/>
</g>
<g>
</g>
<g>
</g>
<g>
</g>
<g>
</g>
<g>
</g>
<g>
</g>
<g>
</g>
<g>
</g>
<g>
</g>
<g>
</g>
<g>
</g>
<g>
</g>
<g>
</g>
<g>
</g>
<g>
</g>
</svg>
