<svg id="Layer_3" enable-background="new 0 0 64 64" height="512" viewBox="0 0 64 64" width="512" xmlns="http://www.w3.org/2000/svg"><g><path d="m38 8v3.757c0 2.717 1.079 5.322 3 7.243 1.921 1.921 3 4.526 3 7.243v31.757c0 2.209-1.791 4-4 4h-16c-2.209 0-4-1.791-4-4v-31.757c0-2.717 1.079-5.322 3-7.243 1.921-1.921 3-4.526 3-7.243v-3.757" fill="#c7e2fc"/><path d="m34.419 8h-8.419v3.757c0 2.717-1.079 5.322-3 7.243s-3 4.526-3 7.243v.47c7.882-2.831 13.668-10.051 14.419-18.713z" fill="#ebf7fe"/><path d="m38.079 13.027c.281 2.249 1.302 4.354 2.921 5.973 1.921 1.921 3 4.526 3 7.243v31.757c0 2.209-1.791 4-4 4h-16c-2.209 0-4-1.791-4-4v-31.757c0-2.717 1.079-5.322 3-7.243 1.613-1.613 2.632-3.708 2.918-5.947l1.082-.553c.63-.315 1.37-.315 2 0 .63.315 1.37.315 2 0 .63-.315 1.37-.315 2 0 .63.315 1.37.315 2 0 .63-.315 1.37-.315 2 0z" fill="#af4a47"/><path d="m33.496 12.678c-.17-.04-.337-.098-.496-.178-.63-.315-1.37-.315-2 0s-1.37.315-2 0-1.37-.315-2 0l-1.082.553c-.286 2.239-1.305 4.334-2.918 5.947-1.921 1.921-3 4.526-3 7.243v.47c6.412-2.303 11.439-7.509 13.496-14.035z" fill="#e4725f"/><path d="m32 53c-6.627 0-12-5.373-12-12v-4c0-6.627 5.373-12 12-12 6.627 0 12 5.373 12 12v4c0 6.627-5.373 12-12 12z" fill="#e7e4dd"/><path d="m36.97 34.515-.97.485-3-1 1 3-2 4-2-4 1-3-3 1-.971-.485c-1.845 1.282-3.029 3.263-3.029 5.485 0 3.866 3.582 7 8 7s8-3.134 8-7c0-2.222-1.184-4.203-3.03-5.485z" fill="#c66b60"/><path d="m38 8h-12c-1.105 0-2-.895-2-2v-2c0-1.105.895-2 2-2h12c1.105 0 2 .895 2 2v2c0 1.105-.895 2-2 2z" fill="#c66b60"/><path d="m33.949 31.684 2.051-.684 4 2-4 2-3-1 1 3-2 4-2-4 1-3-3 1-4-2 4-2 2.051.684c.629.209 1.287.316 1.949.316.662 0 1.32-.107 1.949-.316z" fill="#96cc7f"/><path d="m24 4v2c0 1.105.895 2 2 2h8.419c.055-.632.088-1.27.088-1.916 0-1.396-.136-2.761-.386-4.084h-8.121c-1.105 0-2 .895-2 2z" fill="#e47c6e"/><g><path d="m41.706 18.292c-1.746-1.747-2.708-4.067-2.708-6.535l.001-2.943c1.162-.414 2-1.514 2-2.816v-1.998c0-1.654-1.346-3-3-3h-11.999c-1.654 0-3 1.346-3 3v2c0 1.302.839 2.402 2 2.816v2.942c0 2.468-.962 4.79-2.709 6.536-2.122 2.122-3.291 4.945-3.291 7.948v10.757 4.001 16.998c0 2.758 2.242 5 5 5h15.999c2.758 0 5-2.242 5-4.998v-17-4.001-10.757c0-3.002-1.169-5.826-3.293-7.95zm-7.154-6.687c-.344.173-.757.174-1.106 0-.904-.453-1.987-.454-2.894 0-.344.173-.757.174-1.106 0-.761-.381-1.644-.422-2.445-.161v-2.445h9.999l-.001 2.445c-.802-.261-1.684-.221-2.447.161zm-9.552-7.605c0-.552.448-1 1-1h11.999c.552 0 1 .448 1 1v2c0 .552-.448 1-1 1h-11.999c-.552 0-1-.448-1-1zm-4 32.999c0-6.065 4.935-11 11-11 6.064 0 10.999 4.934 10.999 11v4.001c0 6.064-4.935 10.998-10.999 10.998h-.002c-6.064 0-10.998-4.934-10.998-10.998zm21.999 21.001c0 1.653-1.346 2.998-3 2.998h-15.999c-1.654 0-3-1.346-3-3v-10.102c2.302 3.659 6.366 6.103 11 6.103 4.633 0 8.697-2.444 10.999-6.102zm-11.001-34c-4.633 0-8.696 2.444-10.998 6.103v-3.861c0-2.469.961-4.79 2.707-6.536 1.656-1.656 2.722-3.74 3.116-6.001l.624-.312c.346-.172.759-.171 1.106 0 .904.453 1.987.454 2.894 0 .346-.172.759-.171 1.106 0 .904.453 1.987.454 2.894 0 .346-.173.76-.173 1.105 0l.624.312c.393 2.26 1.46 4.345 3.117 6.001 1.746 1.747 2.707 4.067 2.707 6.535v3.861c-2.304-3.658-6.368-6.102-11.002-6.102z"/><path d="m23 39.999c0 4.412 4.037 8 9 8 4.962 0 8.999-3.588 8.999-8 0-1.971-.806-3.819-2.236-5.264l1.683-.841c.339-.169.554-.516.554-.894 0-.379-.215-.725-.554-.895l-4-2c-.235-.118-.511-.138-.763-.054l-2.052.684s0 0-.001 0c-1.053.352-2.21.352-3.265 0l-2.052-.684c-.25-.083-.526-.064-.764.054l-4 2c-.338.169-.553.516-.552.895 0 .378.214.725.553.894l1.683.841c-1.427 1.445-2.233 3.294-2.233 5.264zm5.075-7.92 1.658.553c1.464.488 3.066.49 4.53 0l1.659-.552 1.842.92-1.841.92-2.607-.869c-.359-.118-.755-.026-1.023.241-.268.269-.361.664-.241 1.023l.869 2.607-.921 1.841-.92-1.841.868-2.607c.12-.359.026-.756-.242-1.023-.268-.268-.66-.359-1.022-.241l-2.607.869-1.843-.92zm-.931 3.61.408.204c.236.118.513.14.763.055l1.104-.368-.367 1.104c-.084.252-.064.526.055.763l2 4c.167.338.514.553.893.553.378 0 .725-.215.894-.554l2-4c.119-.236.139-.512.055-.763l-.367-1.103 1.103.367c.252.084.526.063.763-.055l.408-.204c1.367 1.13 2.144 2.671 2.144 4.31 0 3.309-3.14 6-6.999 6-3.86 0-7-2.691-7-6-.001-1.638.777-3.179 2.143-4.309z"/></g></g></svg>