<svg id="Layer_3" enable-background="new 0 0 64 64" height="512" viewBox="0 0 64 64" width="512" xmlns="http://www.w3.org/2000/svg"><g><path d="m50.033 16v46l-7-3-7 3v-46z" fill="#d5cec2"/><path d="m14.033 16h22v46h-22z" fill="#e7e4dd"/><circle cx="25" cy="27" fill="#c1c8d1" r="7"/><path d="m25 34-1.265-1.265c-.471-.471-.735-1.109-.735-1.775 0-1.152.784-2.156 1.902-2.436l.822-.206c.75-.186 1.276-.86 1.276-1.633 0-.931-.754-1.685-1.685-1.685-1.278 0-2.315-1.037-2.315-2.315v-2.395c.634-.189 1.305-.29 2-.29 3.866 0 7 3.134 7 7s-3.134 7-7 7z" fill="#8892a0"/><path d="m43.033 8 7 8h-14z" fill="#a8b0bc"/><path d="m43.033 8-7 8h-22l7-8z" fill="#8892a0"/><path d="m43.033 8h-22l-3.5 4h22z" fill="#758190"/><path d="m43.033 8v-6h-22v6" fill="#c1c8d1"/><path d="m22 49v-7c0-.552.448-1 1-1h4c.552 0 1 .448 1 1v7" fill="#a8b0bc"/><path d="m28 55h-6c-1.657 0-3-1.343-3-3 0-1.657 1.343-3 3-3h6c1.657 0 3 1.343 3 3 0 1.657-1.343 3-3 3z" fill="#fadfb2"/><path d="m28 43h4c0 2.209-1.791 4-4 4" fill="#758190"/><path d="m22 43h-4c0 2.209 1.791 4 4 4" fill="#758190"/><g><path d="m22 51h2v2h-2z" fill="#efbe9a"/></g><g><path d="m26 51h2v2h-2z" fill="#efbe9a"/></g><g><path d="m39 53h6v2h-6z" fill="#a8b0bc"/></g><path d="m40 20h6v12h-6z" fill="#758190"/><g><path d="m39 35h8v2h-8z" fill="#a8b0bc"/></g><g><path d="m39 39h5v2h-5z" fill="#a8b0bc"/></g><g><path d="m39 43h5v2h-5z" fill="#a8b0bc"/></g><path d="m40 31.031c2.61-.891 4.757-2.768 6-5.192v-5.839h-6z" fill="#8892a0"/><path d="m27 41.483c0-.163-.013-.323-.024-.483h-3.976c-.552 0-1 .448-1 1v5.789c2.865-.672 5-3.237 5-6.306z" fill="#c1c8d1"/><g><path d="m50.999 15.999h-.009c0-.237-.075-.472-.237-.658l-6.753-7.718v-5.624c0-.552-.447-1-1-1h-22c-.265 0-.52.105-.707.293-.189.188-.294.442-.294.708v5.624l-6.752 7.717c-.164.188-.249.425-.248.664v45.995c0 .552.448 1 1 1h22c.14 0 .272-.029.393-.081l6.608-2.832 6.606 2.831c.126.055.26.082.394.082.193 0 .385-.056.551-.166.281-.185.45-.499.45-.835zm-7.999-6.481 4.796 5.481h-9.592zm-21-6.519h20v4h-20zm-.546 6h19.342l-1.75 2h-19.343zm13.546 52.001h-20v-44h20zm-18.796-46.001 1.75-2h19.342l-1.75 2zm27.19 43.081c-.25-.107-.536-.106-.788 0l-5.606 2.402v-43.483h11.999v43.484z"/><path d="m20.966 47.899v.243c-1.721.447-3 2-3 3.859 0 2.205 1.794 3.999 4 3.999h6c2.206 0 4-1.794 4-4 0-1.859-1.279-3.411-3-3.858v-.243c.954-.193 1.831-.659 2.536-1.363.944-.944 1.464-2.2 1.464-3.536 0-.553-.447-1-1-1h-3c0-1.103-.897-2-2-2h-4c-1.103 0-2 .897-2 2h-3c-.552 0-1 .448-1 1 0 2.415 1.721 4.434 4 4.899zm9 4.101c0 1.102-.897 1.999-2 1.999h-6c-1.103 0-2-.897-2-2s.897-2 2-2h6c1.103.001 2 .897 2 2.001zm.83-8c-.147.417-.387.799-.709 1.122-.321.321-.706.55-1.122.697v-1.819zm-3.83-2v6h-4v-6zm-6 2v1.824c-.85-.302-1.527-.974-1.829-1.824z"/><path d="m21.966 51h2v2h-2z"/><path d="m25.966 51h2v2h-2z"/><path d="m24.966 34.999c4.411 0 8-3.588 8-8s-3.588-8-8-8-8 3.588-8 8 3.589 8 8 8zm6-7.999c0 3.175-2.481 5.775-5.605 5.98l-.952-.952c-.281-.281-.442-.67-.442-1.067 0-.695.47-1.297 1.144-1.466l.823-.206c1.197-.299 2.033-1.37 2.033-2.604 0-1.481-1.204-2.685-2.684-2.685-.726 0-1.315-.59-1.315-1.315v-1.595c.326-.055.659-.09 1-.09 3.306 0 5.998 2.691 5.998 6zm-9-5.189v.873c0 1.828 1.487 3.315 3.315 3.315.377 0 .684.307.684.685 0 .314-.213.587-.518.664l-.823.206c-1.565.391-2.659 1.792-2.659 3.406 0 .484.101.951.287 1.383-1.947-.993-3.287-3.013-3.287-5.344.001-2.215 1.211-4.148 3.001-5.188z"/><path d="m38.966 53h6v2h-6z"/><path d="m45.966 19h-6c-.553 0-1 .447-1 1v12c0 .553.447 1 1 1h6c.553 0 1-.447 1-1v-12c0-.553-.447-1-1-1zm-1 11.999h-4v-9.999h4z"/><path d="m38.966 35h8v2h-8z"/><path d="m38.966 39h5v2h-5z"/><path d="m38.966 43h5v2h-5z"/></g></g></svg>