<svg id="Capa_1" enable-background="new 0 0 512 512" height="512" viewBox="0 0 512 512" width="512" xmlns="http://www.w3.org/2000/svg"><g><path d="m239.433 33.587h33.133v47.226h-33.133z" fill="#bacdea"/><path d="m281.417 40.633h-50.833c-8.837 0-16-7.163-16-16v-1.133c0-8.837 7.163-16 16-16h50.833c8.837 0 16 7.163 16 16v1.133c0 8.837-7.164 16-16 16z" fill="#d8e2f3"/><path d="m322.267 106.9 22.925 15.274c16.727 11.145 26.775 29.914 26.775 50.014 0 11.445-3.663 22.435-10.448 31.48-3.319 4.425-7.162 9.548-11.118 14.822-16.859 22.477-17.712 53.143-2.126 76.521l29.13 43.695c7.257 10.885 11.129 23.675 11.129 36.758v95.903c0 18.299-14.834 33.133-33.133 33.133h-198.801c-18.299 0-33.133-14.834-33.133-33.133v-95.903c0-13.083 3.873-25.873 11.129-36.758l29.13-43.695c15.585-23.378 14.733-54.044-2.126-76.521-3.956-5.274-7.799-10.397-11.118-14.822-6.785-9.045-10.448-20.035-10.448-31.48 0-20.1 10.048-38.869 26.775-50.014l22.925-15.274v-5.234h132.533z" fill="#e8ae41"/><path d="m377.404 338.706-29.13-43.694c-15.585-23.378-14.733-54.045 2.126-76.521 3.956-5.274 7.798-10.397 11.118-14.822 6.785-9.045 10.448-20.035 10.448-31.48 0-20.1-10.048-38.869-26.775-50.014l-22.924-15.275v-5.234h-23.815v5.234l22.925 15.274c16.727 11.145 26.775 29.914 26.775 50.014 0 11.444-3.663 22.434-10.448 31.48-3.319 4.425-7.162 9.548-11.118 14.822-16.859 22.477-17.712 53.143-2.126 76.521l29.13 43.694c7.257 10.885 11.129 23.676 11.129 36.758v95.903c0 18.299-14.834 33.133-33.133 33.133h23.814c18.299 0 33.133-14.834 33.133-33.133v-95.903c0-13.082-3.872-25.872-11.129-36.757z" fill="#dd8e3c"/><path d="m320.324 471.367h-128.648c-9.874 0-17.556-8.583-16.465-18.396l12.885-115.967c.932-8.39 8.024-14.737 16.465-14.737h102.878c8.441 0 15.533 6.347 16.465 14.737l12.885 115.967c1.091 9.813-6.591 18.396-16.465 18.396z" fill="#fcf5c7"/><path d="m281.133 388.533h-50.267c-4.418 0-8-3.582-8-8v-17.133c0-4.418 3.582-8 8-8h50.267c4.418 0 8 3.582 8 8v17.133c0 4.419-3.581 8-8 8z" fill="#bbe6a9"/><path d="m322.267 106.9h-132.534v-17.133c0-8.837 7.163-16 16-16h100.533c8.837 0 16 7.163 16 16v17.133z" fill="#d8e2f3"/><path d="m280.85 7.5h-23.815c9.15 0 16.567 7.417 16.567 16.567 0 9.149-7.417 16.567-16.567 16.567h23.815c9.15 0 16.567-7.417 16.567-16.567s-7.417-16.567-16.567-16.567z" fill="#bacdea"/><path d="m305.7 73.767h-23.815c9.15 0 16.567 7.417 16.567 16.567v16.566h23.815v-16.567c0-9.149-7.417-16.566-16.567-16.566z" fill="#bacdea"/><path d="m336.789 452.97-12.885-115.967c-.932-8.39-8.024-14.737-16.465-14.737h-23.815c8.441 0 15.533 6.347 16.465 14.737l12.885 115.967c1.09 9.814-6.591 18.396-16.465 18.396h23.815c9.874.001 17.556-8.582 16.465-18.396z" fill="#f8e883"/><path d="m280.85 355.4h-23.815c4.575 0 8.283 3.708 8.283 8.283v16.567c0 4.575-3.709 8.283-8.283 8.283h23.815c4.575 0 8.283-3.709 8.283-8.283v-16.567c0-4.575-3.708-8.283-8.283-8.283z" fill="#9edaab"/></g><g><path d="m383.644 334.545-29.129-43.694c-13.795-20.693-13.038-47.965 1.885-67.861l11.118-14.822c7.817-10.421 11.949-22.863 11.949-35.98 0-22.66-11.258-43.69-30.116-56.255l-19.584-13.048v-13.118c0-12.958-10.542-23.5-23.5-23.5h-26.2v-18.134h1.35c12.958 0 23.5-10.542 23.5-23.5v-1.133c0-12.958-10.542-23.5-23.5-23.5h-50.833c-12.958 0-23.5 10.542-23.5 23.5v1.133c0 12.958 10.542 23.5 23.5 23.5h1.35v18.133h-26.2c-12.958 0-23.5 10.542-23.5 23.5v13.118l-19.584 13.048c-18.858 12.565-30.116 33.595-30.116 56.255 0 13.118 4.132 25.56 11.949 35.98l11.117 14.823c14.923 19.896 15.681 47.168 1.886 67.861l-29.13 43.694c-8.104 12.158-12.389 26.307-12.389 40.918v32.77c0 4.142 3.358 7.5 7.5 7.5s7.5-3.358 7.5-7.5v-32.77c0-11.64 3.413-22.912 9.87-32.598l29.129-43.694c17.317-25.975 16.366-60.207-2.367-85.182l-11.118-14.822c-5.854-7.804-8.948-17.133-8.948-26.979 0-17.632 8.76-33.995 23.434-43.772l21.036-14.016h32.43c4.142 0 7.5-3.358 7.5-7.5s-3.358-7.5-7.5-7.5h-27.2v-9.633c0-4.687 3.813-8.5 8.5-8.5h100.533c4.687 0 8.5 3.813 8.5 8.5v9.633h-60.334c-4.142 0-7.5 3.358-7.5 7.5s3.358 7.5 7.5 7.5h65.564l21.037 14.017c14.673 9.776 23.434 26.14 23.434 43.771 0 9.846-3.094 19.176-8.948 26.979l-11.119 14.823c-18.732 24.975-19.683 59.207-2.366 85.182l29.129 43.694c6.456 9.686 9.87 20.958 9.87 32.598v95.903c0 14.134-11.499 25.633-25.633 25.633h-198.8c-14.134 0-25.633-11.499-25.633-25.633v-33.134c0-4.142-3.358-7.5-7.5-7.5s-7.5 3.358-7.5 7.5v33.134c0 22.405 18.228 40.633 40.633 40.633h198.8c22.405 0 40.633-18.228 40.633-40.633v-95.903c0-14.611-4.284-28.761-12.389-40.919zm-161.561-309.912v-1.133c0-4.687 3.813-8.5 8.5-8.5h50.833c4.687 0 8.5 3.813 8.5 8.5v1.133c0 4.687-3.813 8.5-8.5 8.5h-50.833c-4.687 0-8.5-3.813-8.5-8.5zm24.85 41.634v-18.134h18.134v18.133h-18.134z"/><path d="m298.424 221.048c-1.005 4.018 1.439 8.09 5.457 9.095.61.153 1.222.226 1.825.226 3.36-.001 6.418-2.275 7.27-5.683l11.42-45.682c1.81-7.24.214-14.766-4.379-20.648-4.592-5.882-11.506-9.255-18.969-9.255h-90.097c-7.463 0-14.377 3.374-18.969 9.255-4.593 5.882-6.189 13.408-4.379 20.648l11.42 45.682c1.004 4.018 5.075 6.461 9.095 5.457 4.019-1.004 6.462-5.077 5.457-9.095l-11.42-45.682c-.682-2.728-.08-5.563 1.65-7.779s4.335-3.487 7.146-3.487h90.097c2.812 0 5.417 1.271 7.146 3.487 1.73 2.216 2.332 5.051 1.65 7.779z"/><path d="m167.756 452.143c-.755 6.795 1.427 13.614 5.987 18.708s11.096 8.016 17.933 8.016h128.647c6.837 0 13.374-2.922 17.933-8.016 4.56-5.094 6.742-11.913 5.987-18.708l-12.885-115.967c-1.356-12.205-11.64-21.409-23.919-21.409h-102.878c-12.28 0-22.563 9.204-23.919 21.409zm159.324 8.704c-1.743 1.947-4.143 3.02-6.756 3.02h-128.648c-2.614 0-5.013-1.073-6.756-3.02s-2.544-4.45-2.255-7.048l.896-8.065h144.879l.896 8.065c.288 2.598-.513 5.1-2.256 7.048zm-131.53-123.015c.511-4.598 4.385-8.066 9.011-8.066h102.878c4.626 0 8.5 3.468 9.011 8.065l10.322 92.901h-141.545z"/><path d="m230.867 396.033h50.267c8.547 0 15.5-6.953 15.5-15.5v-17.133c0-8.547-6.953-15.5-15.5-15.5h-50.267c-8.547 0-15.5 6.953-15.5 15.5v17.133c0 8.547 6.953 15.5 15.5 15.5zm-.5-32.633c0-.276.224-.5.5-.5h50.267c.276 0 .5.224.5.5v17.133c0 .276-.224.5-.5.5h-50.267c-.276 0-.5-.224-.5-.5z"/></g></svg>