<svg height="512pt" viewBox="0 -31 512.00033 512" width="512pt" xmlns="http://www.w3.org/2000/svg"><path d="m191.359375 130.78125v28.277344l45.792969 238.9375c.441406 2.289062.660156 4.613281.660156 6.945312 0 20.375-16.515625 36.894532-36.890625 36.894532h-156.476563c-20.375 0-36.890624-16.519532-36.890624-36.894532 0-2.332031.21875-4.65625.660156-6.945312l45.796875-238.9375v-28.277344zm0 0" fill="#d9edff"/><path d="m37.96875 403.703125c-.078125.40625-.117188.824219-.117188 1.238281 0 3.636719 2.960938 6.597656 6.59375 6.597656h156.476563c3.636719 0 6.59375-2.960937 6.59375-6.597656 0-.414062-.039063-.832031-.117187-1.242187l-33.917969-176.976563h-101.589844zm0 0" fill="#fff5f5"/><path d="m207.398438 403.699219-33.921876-176.976563h-21.207031l33.921875 176.976563c.078125.410156.117188.828125.117188 1.242187 0 3.636719-2.960938 6.597656-6.59375 6.597656h21.207031c3.636719 0 6.59375-2.960937 6.59375-6.597656 0-.414062-.039063-.832031-.117187-1.242187zm0 0" fill="#efe2dd"/><path d="m237.152344 397.996094-45.792969-238.9375v-28.277344h-15.148437v26.359375c0 1.277344.117187 2.550781.359374 3.804687l45.433594 237.050782c.441406 2.289062.660156 4.613281.660156 6.945312 0 20.375-16.515624 36.894532-36.890624 36.894532h15.148437c20.375 0 36.890625-16.519532 36.890625-36.894532 0-2.332031-.21875-4.65625-.660156-6.945312zm0 0" fill="#b4dbff"/><path d="m191.359375 90.386719 6.203125-6.203125c3.785156-3.789063 5.914062-8.925782 5.914062-14.28125v-7.792969c0-29.839844-36.171874-54.535156-80.792968-54.535156s-80.792969 24.695312-80.792969 54.535156v7.792969c0 5.355468 2.128906 10.492187 5.917969 14.28125l6.203125 6.203125zm0 0" fill="#dce6eb"/><path d="m122.683594 7.574219c-3.074219 0-6.105469.128906-9.089844.355469 40.339844 3.082031 71.707031 26.394531 71.707031 54.179687v7.792969c0 5.355468-2.128906 10.492187-5.917969 14.28125l-6.203124 6.203125h18.179687l6.203125-6.203125c3.785156-3.789063 5.914062-8.925782 5.914062-14.28125v-7.792969c0-29.839844-36.171874-54.535156-80.792968-54.535156zm0 0" fill="#c8d2dc"/><path d="m54.011719 90.386719h137.347656v40.394531h-137.347656zm0 0" fill="#dce6eb"/><path d="m178.230469 90.386719v17.167969c0 5.578124-4.523438 10.097656-10.101563 10.097656h-114.117187v13.128906h137.347656v-40.394531zm0 0" fill="#c8d2dc"/><path d="m457.972656 130.78125v28.277344l45.796875 238.9375c.441407 2.289062.660157 4.613281.660157 6.945312 0 20.375-16.515626 36.894532-36.894532 36.894532h-156.472656c-20.375 0-36.890625-16.519532-36.890625-36.894532 0-2.332031.21875-4.65625.65625-6.945312l45.796875-238.9375v-28.277344zm0 0" fill="#d9edff"/><path d="m304.585938 403.703125c-.078126.40625-.117188.824219-.117188 1.238281 0 3.636719 2.957031 6.597656 6.59375 6.597656h156.476562c3.636719 0 6.59375-2.960937 6.59375-6.597656 0-.414062-.039062-.832031-.117187-1.242187l-33.921875-176.976563h-101.585938zm0 0" fill="#b46e5a"/><path d="m474.015625 403.699219-33.921875-176.976563h-21.207031l33.917969 176.976563c.082031.410156.121093.828125.121093 1.242187 0 3.636719-2.960937 6.597656-6.597656 6.597656h21.207031c3.636719 0 6.597656-2.960937 6.597656-6.597656 0-.414062-.039062-.832031-.117187-1.242187zm0 0" fill="#a65d4e"/><path d="m503.769531 397.996094-45.796875-238.9375v-28.277344h-15.148437v26.359375c0 1.277344.121093 2.550781.363281 3.804687l45.433594 237.050782c.4375 2.289062.660156 4.613281.660156 6.945312 0 20.375-16.519531 36.894532-36.894531 36.894532h15.148437c20.375 0 36.894532-16.519532 36.894532-36.894532 0-2.332031-.222657-4.65625-.660157-6.945312zm0 0" fill="#b4dbff"/><path d="m457.972656 90.386719 6.203125-6.203125c3.789063-3.789063 5.917969-8.925782 5.917969-14.28125v-7.792969c0-29.839844-36.171875-54.535156-80.792969-54.535156-44.621093 0-80.792969 24.695312-80.792969 54.535156v7.792969c0 5.355468 2.128907 10.492187 5.914063 14.28125l6.203125 6.203125zm0 0" fill="#dce6eb"/><path d="m389.300781 7.574219c-3.074219 0-6.105469.128906-9.089843.355469 40.339843 3.082031 71.703124 26.394531 71.703124 54.179687v7.792969c0 5.355468-2.128906 10.492187-5.914062 14.28125l-6.203125 6.203125h18.175781l6.203125-6.203125c3.789063-3.789063 5.917969-8.925782 5.917969-14.28125v-7.792969c0-29.839844-36.171875-54.535156-80.792969-54.535156zm0 0" fill="#c8d2dc"/><path d="m320.625 90.386719h137.347656v40.394531h-137.347656zm0 0" fill="#dce6eb"/><path d="m444.84375 90.386719v17.167969c0 5.578124-4.519531 10.097656-10.097656 10.097656h-114.121094v13.128906h137.347656v-40.394531zm0 0" fill="#c8d2dc"/><path d="m198.933594 158.339844v-64.816406l3.984375-3.984376c5.242187-5.246093 8.132812-12.21875 8.132812-19.636718v-7.792969c0-34.246094-39.640625-62.109375-88.367187-62.109375-48.726563 0-88.367188 27.863281-88.367188 62.109375v7.792969c0 7.417968 2.890625 14.390625 8.132813 19.636718l3.988281 3.984376v64.816406l-9.523438 49.675781c-.785156 4.109375 1.90625 8.078125 6.015626 8.863281 4.105468.777344 8.074218-1.902344 8.863281-6.011718 0 0 9.792969-51.328126 9.792969-51.808594v-20.703125h122.195312v20.703125c0 .480468 45.453125 240.363281 45.453125 240.363281 1.679687 8.753906-.796875 17.957031-6.628906 24.6875-5.535157 6.394531-13.707031 10.148437-22.164063 10.148437h-155.996094c-8.367187 0-16.457031-3.671874-21.988281-9.949218-5.953125-6.75-8.5-16.042969-6.804687-24.886719l29.449218-153.632813c.785157-4.109374-1.90625-8.078124-6.015624-8.867187-4.109376-.78125-8.078126 1.902344-8.863282 6.011719l-29.449218 153.636718c-3.621094 18.90625 5.71875 38.421876 22.640624 47.542969 6.441407 3.472657 13.714844 5.292969 21.03125 5.292969h156.476563c18.300781 0 35.148437-11.675781 41.617187-28.796875 2.882813-7.632813 3.589844-16.027344 2.054688-24.039063zm-149.46875-96.230469c0-16.640625 14.335937-31.59375 35.347656-39.953125v15.714844c0 4.183594 3.390625 7.574218 7.574219 7.574218 4.183593 0 7.574219-3.390624 7.574219-7.574218v-20.296875c4.863281-1.058594 9.929687-1.796875 15.148437-2.160157v22.457032c0 4.183594 3.390625 7.574218 7.574219 7.574218s7.574218-3.390624 7.574218-7.574218v-22.457032c5.21875.359376 10.285157 1.101563 15.148438 2.160157v20.296875c0 4.183594 3.390625 7.574218 7.574219 7.574218 4.183593 0 7.574219-3.390624 7.574219-7.574218v-15.714844c21.011718 8.359375 35.347656 23.3125 35.347656 39.953125v7.792969c0 3.371094-1.3125 6.539062-3.699219 8.921875l-3.980469 3.988281h-131.074218l-3.984376-3.988281c-2.386718-2.382813-3.699218-5.550781-3.699218-8.921875zm12.121094 61.097656v-25.246093h122.195312v25.246093zm0 0"/><path d="m161.058594 153.503906h-76.75c-4.1875 0-7.574219 3.390625-7.574219 7.574219v.140625l-46.203125 241.058594c-.167969.875-.253906 1.773437-.253906 2.664062 0 7.8125 6.355468 14.167969 14.167968 14.167969h156.476563c8.75 0 15.570313-8.230469 13.917969-16.835937l-20.332032-106.082032c-.789062-4.109375-4.761718-6.800781-8.867187-6.011718-4.109375.789062-6.800781 4.757812-6.011719 8.863281l20.109375 104.917969h-154.105469l32.515626-169.664063h89.070312l5.640625 29.445313c.789063 4.109374 4.757813 6.796874 8.867187 6.011718 4.105469-.785156 6.796876-4.753906 6.011719-8.863281l-19.105469-99.671875v-.136719c.003907-4.1875-3.390624-7.578125-7.574218-7.578125zm-80.003906 65.644532 9.675781-50.496094h63.90625l9.675781 50.496094zm0 0"/><path d="m511.210938 396.570312-28.464844-148.507812c-.789063-4.109375-4.757813-6.796875-8.867188-6.011719-4.105468.789063-6.800781 4.757813-6.011718 8.863281l28.464843 148.507813c1.679688 8.753906-.796875 17.957031-6.628906 24.691406-5.535156 6.390625-13.707031 10.148438-22.167969 10.148438h-156.472656c-8.367188 0-16.460938-3.675781-21.992188-9.949219-5.953124-6.75-8.5-16.046875-6.800781-24.890625 0 0 45.929688-239.882813 45.929688-240.363281v-20.703125h122.199219v20.703125c0 .480468 10.714843 56.621094 10.714843 56.621094.785157 4.105468 4.75 6.792968 8.863281 6.011718 4.109376-.789062 6.800782-4.757812 6.015626-8.867187l-10.445313-54.484375v-64.816406l3.984375-3.984376c5.246094-5.246093 8.136719-12.21875 8.136719-19.636718v-7.792969c0-34.246094-39.640625-62.109375-88.367188-62.109375-48.726562 0-88.367187 27.863281-88.367187 62.109375v7.792969c0 7.417968 2.886718 14.390625 8.132812 19.636718l3.984375 3.984376v64.816406l-45.660156 238.230468c-3.625 18.902344 5.71875 38.421876 22.640625 47.542969 6.441406 3.472657 13.714844 5.292969 21.03125 5.292969h156.472656c18.304688 0 35.152344-11.679688 41.617188-28.796875 2.882812-7.628906 3.59375-16.027344 2.058594-24.039063zm-183.011719-273.363281v-25.246093h122.199219v25.246093zm-12.117188-61.097656c0-16.640625 14.332031-31.59375 35.347657-39.953125v15.714844c0 4.183594 3.390624 7.574218 7.574218 7.574218 4.179688 0 7.570313-3.390624 7.570313-7.574218v-20.296875c4.867187-1.058594 9.933593-1.796875 15.152343-2.160157v22.457032c0 4.183594 3.390626 7.574218 7.574219 7.574218 4.179688 0 7.570313-3.390624 7.570313-7.574218v-22.457032c5.21875.359376 10.285156 1.101563 15.152344 2.160157v20.296875c0 4.183594 3.390624 7.574218 7.574218 7.574218 4.179688 0 7.574219-3.390624 7.574219-7.574218v-15.714844c21.011719 8.359375 35.34375 23.3125 35.34375 39.953125v7.792969c0 3.371094-1.3125 6.539062-3.695313 8.921875l-3.984374 3.988281h-131.074219l-3.984375-3.988281c-2.382813-2.382813-3.695313-5.550781-3.695313-8.921875zm0 0"/><path d="m427.675781 153.503906h-76.753906c-4.183594 0-7.574219 3.390625-7.574219 7.574219v.140625l-46.203125 241.058594c-1.648437 8.601562 5.167969 16.832031 13.917969 16.832031h156.476562c8.746094 0 15.570313-8.234375 13.914063-16.835937l-33.9375-177.070313c0-.003906 0-.007813 0-.007813l-12.261719-63.976562v-.140625c-.003906-4.183594-3.394531-7.574219-7.578125-7.574219zm-70.328125 15.148438h63.90625l9.675782 50.496094h-83.261719zm-45.101562 235.3125 32.519531-169.667969h89.066406l32.519531 169.667969zm0 0"/></svg>