<svg id="icons" enable-background="new 0 0 64 64" height="512" viewBox="0 0 64 64" width="512" xmlns="http://www.w3.org/2000/svg"><circle cx="32" cy="49.01" fill="#ed5565" r="5"/><path d="m16 43c0 8.84 7.16 16 16 16 8.841 0 16-7.16 16-16v4c0 8.84-7.159 16-16 16-8.84 0-16-7.16-16-16z" fill="#e6e9ed"/><path d="m16 17c0-8.83 7.16-16 16-16 8.841 0 16 7.17 16 16 0 8.84-7.159 16-16 16-8.84 0-16-7.16-16-16zm16 13c7.181 0 13-5.82 13-13 0-7.17-5.819-13-13-13-7.18 0-13 5.83-13 13 0 7.18 5.82 13 13 13z" fill="#ccd1d9"/><path d="m16 17c0 8.84 7.16 16 16 16 8.841 0 16-7.16 16-16v4.01c0 8.83-7.159 16-16 16-8.84 0-16-7.17-16-16z" fill="#e6e9ed"/><path d="m32 4c7.181 0 13 5.83 13 13 0 7.18-5.819 13-13 13-7.18 0-13-5.82-13-13 0-7.17 5.82-13 13-13z" fill="#aab2bd"/><path d="m32 44.01c-2.76 0-5 2.24-5 5s2.24 5 5 5c2.761 0 5-2.24 5-5s-2.239-5-5-5zm16-23v21.99c0 8.84-7.159 16-16 16-8.84 0-16-7.16-16-16v-21.99c0 8.83 7.16 16 16 16 8.841 0 16-7.17 16-16z" fill="#ffce54"/><path d="m32 34c-9.374 0-17-7.626-17-17s7.626-17 17-17 17 7.626 17 17-7.626 17-17 17zm0-32c-8.271 0-15 6.729-15 15s6.729 15 15 15 15-6.729 15-15-6.729-15-15-15z"/><path d="m32 31c-7.72 0-14-6.28-14-14s6.28-14 14-14 14 6.28 14 14-6.28 14-14 14zm0-26c-6.617 0-12 5.383-12 12s5.383 12 12 12 12-5.383 12-12-5.383-12-12-12z"/><path d="m32 64c-9.374 0-17-7.626-17-17 0-.553.447-1 1-1s1 .447 1 1c0 8.271 6.729 15 15 15s15-6.729 15-15c0-.553.447-1 1-1s1 .447 1 1c0 9.374-7.626 17-17 17z"/><path d="m32 60c-9.374 0-17-7.626-17-17 0-.553.447-1 1-1s1 .447 1 1c0 8.271 6.729 15 15 15s15-6.729 15-15c0-.553.447-1 1-1s1 .447 1 1c0 9.374-7.626 17-17 17z"/><path d="m32 38.001c-9.374 0-17-7.626-17-17 0-.553.447-1 1-1s1 .447 1 1c0 8.271 6.729 15 15 15s15-6.729 15-15c0-.553.447-1 1-1s1 .447 1 1c0 9.374-7.626 17-17 17z"/><path d="m16 48c-.553 0-1-.447-1-1v-30c0-.553.447-1 1-1s1 .447 1 1v30c0 .553-.447 1-1 1z"/><path d="m48 48c-.553 0-1-.447-1-1v-30c0-.553.447-1 1-1s1 .447 1 1v30c0 .553-.447 1-1 1z"/><path d="m32 55.002c-3.309 0-6-2.691-6-6s2.691-6 6-6 6 2.691 6 6-2.691 6-6 6zm0-10c-2.206 0-4 1.794-4 4s1.794 4 4 4 4-1.794 4-4-1.794-4-4-4z"/><path d="m30 45.001c-1.103 0-2-.897-2-2 0-.553.447-1 1-1s1 .447 1 1v.002c.553 0 1 .446 1 .999 0 .552-.447.999-1 .999z"/><path d="m33.998 45.002c-.553 0-1-.447-1-1s.447-1 1-1c0-.553.448-1.001 1.001-1.001s1.001.446 1.001.999c0 1.104-.898 2.002-2.002 2.002z"/><path d="m33.998 45.001h-3.998c-.553 0-1-.447-1-1s.447-1 1-1h3.998c.553 0 1 .447 1 1s-.447 1-1 1z"/><path d="m32 45.002c-.553 0-1-.447-1-1v-3.001c0-.553.447-1 1-1s1 .447 1 1v3.001c0 .553-.447 1-1 1z"/></svg>