<svg id="Layer_1" enable-background="new 0 0 512 512" height="512" viewBox="0 0 512 512" width="512" xmlns="http://www.w3.org/2000/svg"><g><g><path d="m56 328h-32c-8.822 0-16-7.178-16-16v-112c0-8.822 7.178-16 16-16h32c4.418 0 8 3.582 8 8s-3.582 8-8 8h-32v112h32c4.418 0 8 3.582 8 8s-3.582 8-8 8z" fill="#a5c3dc"/></g><g><path d="m272 464h-32c-114.875 0-208-93.125-208-208 0-114.875 93.125-208 208-208h32c114.875 0 208 93.125 208 208 0 114.875-93.125 208-208 208z" fill="#353744"/></g><g><circle cx="240" cy="256" fill="#55525b" r="208"/></g><g><path d="m56 264c-4.418 0-8-3.582-8-8 0-105.869 86.131-192 192-192 4.418 0 8 3.582 8 8s-3.582 8-8 8c-97.047 0-176 78.953-176 176 0 4.418-3.582 8-8 8z" fill="#737079"/></g><g><path d="m488 328h-32c-4.418 0-8-3.582-8-8s3.582-8 8-8h32v-112h-32c-4.418 0-8-3.582-8-8s3.582-8 8-8h32c8.822 0 16 7.178 16 16v112c0 8.822-7.178 16-16 16z" fill="#a5c3dc"/></g></g></svg>