<svg id="filled_outline" height="512" viewBox="0 0 512 512" width="512" xmlns="http://www.w3.org/2000/svg" data-name="filled outline"><path d="m440 176h-64v-56h23.02945a40.97052 40.97052 0 0 1 28.97055 12 40.97052 40.97052 0 0 1 12 28.97054z" fill="#b82f1a"/><path d="m264 168v-32a40 40 0 0 1 40-40 40 40 0 0 1 40 40v32z" fill="#cc442f"/><path d="m168 126.99v49.01h-96v-49.01a31.48878 31.48878 0 0 1 .78-7 31.961 31.961 0 0 1 10.73-17.59l36.49-30.4 36.49 30.4a32.01809 32.01809 0 0 1 11.51 24.59z" fill="#b1712c"/><path d="m264 126.99v41.01h-96v-41.01a31.48878 31.48878 0 0 1 .78-7 31.961 31.961 0 0 1 10.73-17.59l36.49-30.4 36.49 30.4a32.01809 32.01809 0 0 1 11.51 24.59z" fill="#a36522"/><path d="m48 224h416v168h-416z" fill="#b1712c"/><path d="m488 392a86.83274 86.83274 0 0 1 -77.66556 48h-308.66886a86.83274 86.83274 0 0 1 -77.66556-48z" fill="#e5e7e9"/><path d="m344 168v-16a32 32 0 0 1 32-32 32 32 0 0 1 32 32v16z" fill="#cc442f"/><path d="m80 168h352a32 32 0 0 1 32 32v112a32 32 0 0 1 -32-32v-32a16 16 0 0 0 -16-16 16 16 0 0 0 -16 16v56a16 16 0 0 1 -16 16 16 16 0 0 1 -16-16v-36.00089a35.99911 35.99911 0 0 0 -36-35.99911 36.00081 36.00081 0 0 0 -36 36.00082v27.99918a16 16 0 0 1 -16 16 16 16 0 0 1 -16-16v-48a16 16 0 0 0 -16-16 16 16 0 0 0 -16 16v16a16 16 0 0 1 -16 16 16 16 0 0 1 -16-16v-4a28 28 0 0 0 -28-28 28 28 0 0 0 -28 28v36a16 16 0 0 1 -16 16 16 16 0 0 1 -16-16v-40a16 16 0 0 0 -16-16 16 16 0 0 0 -16 16v16a32 32 0 0 1 -32 32v-104a32 32 0 0 1 32-32z" fill="#f5c99d"/><path d="m304 168v-12a20 20 0 0 1 20-20 20 20 0 0 1 20 20v12" fill="#851c56"/><path d="m264 168v-4a20 20 0 0 1 20-20 20 20 0 0 1 20 20v4z" fill="#992565"/><path d="m494.80566 387.794a8.00151 8.00151 0 0 0 -6.80566-3.794h-16v-184a40.05231 40.05231 0 0 0 -24-36.65v-2.3793a48.97012 48.97012 0 0 0 -48.9707-48.9707h-23.0293a39.81791 39.81791 0 0 0 -26.15283 9.77271 47.95451 47.95451 0 0 0 -8.91406-16.39448 56.249 56.249 0 0 0 11.06689-33.37823h-16a40.14378 40.14378 0 0 1 -7.2417 22.8941 47.91555 47.91555 0 0 0 -62.77441 11.85071 40.043 40.043 0 0 0 -8.37647-9.62958l-36.48633-30.40478a8.00049 8.00049 0 0 0 -10.24218 0l-36.48731 30.40527a40.124 40.124 0 0 0 -6.3916 6.73419 40.135 40.135 0 0 0 -6.39258-6.73468l-36.48633-30.40478a8.00049 8.00049 0 0 0 -10.24218 0l-36.48731 30.40527a39.89665 39.89665 0 0 0 -14.3916 30.72852v35.50576a40.05231 40.05231 0 0 0 -24 36.65v184h-16a7.99928 7.99928 0 0 0 -7.15527 11.57764 94.31563 94.31563 0 0 0 84.82127 52.42236h308.668a94.31563 94.31563 0 0 0 84.82129-52.42236 8.00108 8.00108 0 0 0 -.34963-7.78364zm-118.80566-259.794a24.0275 24.0275 0 0 1 24 24h16a39.77085 39.77085 0 0 0 -6.90039-22.43286 32.97781 32.97781 0 0 1 22.87695 30.43286h-47.97656v-15.14355h-16v15.14355h-16v-8a24.0275 24.0275 0 0 1 24-24zm-216 32h-42.50171a132.8843 132.8843 0 0 0 31.7-16.73975l10.80171-7.71539zm96-24v24h-42.50171a132.8843 132.8843 0 0 0 31.7-16.73975l10.80171-7.71539zm80 24h-24v-4a12 12 0 0 1 24 0zm-32-56a31.81788 31.81788 0 0 1 12.56738 2.57458l-9.36718 7.02552 9.5996 12.7998 12.78907-9.59192a31.85275 31.85275 0 0 1 5.92627 13.67945 27.95129 27.95129 0 0 0 -35.27588 10.7243 27.92424 27.92424 0 0 0 -28.23926-2.50464v-2.70709a32.03635 32.03635 0 0 1 32-32zm-8.7002 56h-22.5996a11.98034 11.98034 0 0 1 22.5996 0zm-110.665-50.59277 31.3652-26.13723 31.36426 26.13672a23.98108 23.98108 0 0 1 6.31518 8.134l-17.781 12.7a116.059 116.059 0 0 1 -59.89844 21.47357v-16.09246a84.59956 84.59956 0 0 0 52.2832-24.59156l1.37305-1.37256-11.3125-11.31542-1.374 1.37353a68.7168 68.7168 0 0 1 -39.40875 19.61987 23.95028 23.95028 0 0 1 7.07377-9.92846zm-96 0 31.3652-26.13723 31.36426 26.13672a23.98108 23.98108 0 0 1 6.31518 8.134l-17.781 12.7a116.059 116.059 0 0 1 -59.89844 21.47357v-16.09246a84.59956 84.59956 0 0 0 52.2832-24.59156l1.37305-1.37256-11.3125-11.31542-1.374 1.37353a68.7168 68.7168 0 0 1 -39.40875 19.61987 23.95028 23.95028 0 0 1 7.07377-9.92846zm-32.6348 90.59277a24.02718 24.02718 0 0 1 24-24h352a24.02718 24.02718 0 0 1 24 24v102.62891a24.04118 24.04118 0 0 1 -16-22.62891v-32a24 24 0 0 0 -48 0v56a8 8 0 0 1 -16 0v-36.001a44 44 0 0 0 -88 .002v27.999a8 8 0 0 1 -16 0v-48a24 24 0 0 0 -48 0v16a8 8 0 0 1 -16 0v-4a36 36 0 0 0 -72 0v36a8 8 0 0 1 -16 0v-40a24 24 0 0 0 -48 0v16a24.04118 24.04118 0 0 1 -16 22.62891zm0 111.19507a40.068 40.068 0 0 0 32-39.19507v-16a8 8 0 0 1 16 0v40a24 24 0 0 0 48 0v-36a20 20 0 0 1 40 0v4a24 24 0 0 0 48 0v-16a8 8 0 0 1 16 0v48a24 24 0 0 0 48 0v-27.999a28 28 0 1 1 56-.002v36.001a24 24 0 0 0 48 0v-56a8 8 0 0 1 16 0v32a40.068 40.068 0 0 0 32 39.19507v64.80493h-400zm354.334 120.80493h-308.668a78.33772 78.33772 0 0 1 -63.44141-32h435.5508a78.33772 78.33772 0 0 1 -63.44139 32z"/><path d="m216 308.686h16v22.627h-16z" transform="matrix(.707 -.707 .707 .707 -160.666 252.118)"/><path d="m160 324.686h16v22.627h-16z" transform="matrix(.707 -.707 .707 .707 -188.382 217.206)"/><path d="m304 348.686h16v22.627h-16z" transform="matrix(.707 -.707 .707 .707 -163.176 326.059)"/><path d="m416 324.686h16v22.627h-16z" transform="matrix(.707 -.707 .707 .707 -113.404 398.202)"/><path d="m80 324.686h16v22.627h-16z" transform="matrix(.707 -.707 .707 .707 -211.813 160.638)"/><path d="m196.686 352h22.627v16h-22.627z" transform="matrix(.707 -.707 .707 .707 -193.641 252.537)"/><path d="m324.686 328h22.627v16h-22.627z" transform="matrix(.707 -.707 .707 .707 -139.176 336.021)"/><path d="m260.686 336h22.627v16h-22.627z" transform="matrix(.707 -.707 .707 .707 -163.58 293.107)"/><path d="m372.686 352h22.627v16h-22.627z" transform="matrix(.707 -.707 .707 .707 -142.087 376.993)"/><path d="m116.686 352h22.627v16h-22.627z" transform="matrix(.707 -.707 .707 .707 -217.075 195.966)"/></svg>