<svg height="512" viewBox="0 0 128 128" width="512" xmlns="http://www.w3.org/2000/svg"><g><g><path d="m16 24.192h96a6 6 0 0 1 6 6v39.808a0 0 0 0 1 0 0h-108a0 0 0 0 1 0 0v-39.808a6 6 0 0 1 6-6z" fill="#eaeaf0"/><g fill="#f4a86c"><ellipse cx="29.417" cy="64" rx="14.696" ry="21.375"/><ellipse cx="64" cy="64" rx="14.696" ry="21.375"/><ellipse cx="98.583" cy="64" rx="14.696" ry="21.375"/></g><path d="m12.667 70 3.614 28.561a6 6 0 0 0 5.953 5.247h13.439a6 6 0 0 0 5.952-5.247l.926-7.311h7.849l.925 7.311a6 6 0 0 0 5.952 5.247h13.443a6 6 0 0 0 5.952-5.247l.928-7.311h7.852l.926 7.311a6 6 0 0 0 5.952 5.247h13.439a6 6 0 0 0 5.953-5.247l3.611-28.561z" fill="#eaeaf0"/><rect fill="#d8d8d8" height="6" rx="3" width="115" x="6.5" y="67"/></g><g fill="#111b35"><path d="m10 54.167a1.751 1.751 0 0 0 1.75-1.75v-3.448a1.75 1.75 0 0 0 -3.5 0v3.448a1.751 1.751 0 0 0 1.75 1.75z"/><path d="m112 31.942a1.75 1.75 0 0 0 0-3.5h-96a1.75 1.75 0 0 0 0 3.5z"/><path d="m106.479 53.008a13.236 13.236 0 0 0 -4.219-4.944 1.75 1.75 0 0 0 -1.92 2.926 9.911 9.911 0 0 1 3.043 3.653 1.751 1.751 0 0 0 3.1-1.635z"/><path d="m22.234 96.058a1.75 1.75 0 1 0 0 3.5h13.439a1.75 1.75 0 0 0 0-3.5z"/><path d="m57.28 96.058a1.75 1.75 0 0 0 0 3.5h13.44a1.75 1.75 0 0 0 0-3.5z"/><path d="m92.327 96.058a1.75 1.75 0 0 0 0 3.5h13.44a1.75 1.75 0 0 0 0-3.5z"/><path d="m119.75 65.438v-35.248a7.759 7.759 0 0 0 -7.75-7.75h-96a7.759 7.759 0 0 0 -7.75 7.75v12.977a1.75 1.75 0 0 0 3.5 0v-12.977a4.255 4.255 0 0 1 4.25-4.25h96a4.255 4.255 0 0 1 4.25 4.25v35.06h-1.25c.018-.42.029-.837.029-1.25 0-12.754-7.38-23.13-16.45-23.13s-16.439 10.376-16.439 23.13c0 .407.03.832.048 1.25h-1.767c.018-.419.029-.837.029-1.25a30.48 30.48 0 0 0 -2.513-12.337 1.749 1.749 0 1 0 -3.195 1.425 26.971 26.971 0 0 1 2.208 10.912c0 .412-.01.83-.03 1.25h-25.84c-.018-.421-.03-.84-.03-1.25 0-10.824 5.809-19.63 12.95-19.63a9.918 9.918 0 0 1 6.809 2.971 1.75 1.75 0 0 0 2.406-2.541 13.346 13.346 0 0 0 -9.215-3.93c-9.071 0-16.45 10.376-16.45 23.13 0 .411.013.83.029 1.25h-1.748c.016-.419.029-.838.029-1.25 0-12.754-7.375-23.13-16.44-23.13s-16.45 10.376-16.45 23.13c0 .412.014.831.03 1.25h-1.25v-7.083a1.75 1.75 0 0 0 -3.5 0v7.271a4.738 4.738 0 0 0 1.25 9.312h2.007l3.036 24.03a7.767 7.767 0 0 0 7.687 6.78h13.44a7.771 7.771 0 0 0 7.7-6.782l.723-5.778h4.765l.736 5.78a7.765 7.765 0 0 0 7.686 6.78h13.44a7.765 7.765 0 0 0 7.686-6.779l.736-5.781h4.764l.728 5.78a7.77 7.77 0 0 0 7.7 6.78h13.44a7.765 7.765 0 0 0 7.686-6.781l1.357-10.737a1.75 1.75 0 1 0 -3.472-.439l-1.362 10.737a4.258 4.258 0 0 1 -4.213 3.72h-13.44a4.264 4.264 0 0 1 -4.224-3.718l-.919-7.311a1.751 1.751 0 0 0 -1.737-1.531h-7.85a1.752 1.752 0 0 0 -1.737 1.529l-.929 7.311a4.259 4.259 0 0 1 -4.214 3.72h-13.44a4.259 4.259 0 0 1 -4.214-3.721l-.93-7.31a1.75 1.75 0 0 0 -1.736-1.529h-7.85a1.751 1.751 0 0 0 -1.737 1.531l-.919 7.309a4.264 4.264 0 0 1 -4.224 3.72h-13.44a4.259 4.259 0 0 1 -4.214-3.719l-2.981-23.591h97.93l-.605 4.783a1.75 1.75 0 0 0 1.517 1.955 1.665 1.665 0 0 0 .222.014 1.75 1.75 0 0 0 1.734-1.531l.66-5.221h2.007a4.738 4.738 0 0 0 1.25-9.312zm-34.11-1.438c0-10.824 5.8-19.63 12.94-19.63s12.95 8.806 12.95 19.63c0 .412-.01.83-.029 1.25h-25.809c-.02-.418-.052-.844-.052-1.25zm-69.17 0c0-10.824 5.809-19.63 12.95-19.63s12.94 8.806 12.94 19.63c0 .411-.012.83-.03 1.25h-25.83c-.018-.42-.03-.839-.03-1.25zm102.03 7.25h-109a1.25 1.25 0 0 1 0-2.5h109a1.25 1.25 0 0 1 0 2.5z"/></g></g></svg>