<svg width="240" height="249" viewBox="0 0 240 249" fill="none" xmlns="http://www.w3.org/2000/svg">
<path d="M54.487 87.0617L45.3899 93.0314L140.131 237.561L149.228 231.591L54.487 87.0617Z" fill="#E6E6E6"/>
<path d="M32.8294 32.6714L53.877 64.78C54.2846 65.4018 54.4286 66.1601 54.2774 66.8882C54.1262 67.6162 53.6921 68.2543 53.0707 68.6621C52.4492 69.07 51.6913 69.2141 50.9637 69.0628C50.236 68.9115 49.5983 68.4771 49.1907 67.8554L24.9939 30.9426C21.7095 30.6682 18.4083 31.2106 15.3842 32.5217L41.7476 72.7397C42.1549 73.3615 42.2988 74.1197 42.1475 74.8476C41.9962 75.5754 41.5621 76.2134 40.9408 76.6211C40.3195 77.0289 39.5617 77.173 38.8342 77.0218C38.1067 76.8707 37.469 76.4366 37.0613 75.815L10.6979 35.597C8.29111 37.8499 6.47852 40.6633 5.42148 43.7867L29.6182 80.6994C30.0256 81.3212 30.1694 82.0794 30.0181 82.8073C29.8668 83.5352 29.4327 84.1731 28.8114 84.5808C28.1901 84.9886 27.4324 85.1327 26.7048 84.9815C25.9773 84.8304 25.3396 84.3963 24.9319 83.7748L3.88428 51.6661C3.34369 60.6188 6.26102 71.2301 12.6546 80.9837C24.5373 99.111 43.9204 107.408 55.9479 99.5149C67.9755 91.622 68.0928 70.5285 56.2101 52.4011C49.8166 42.6475 41.2517 35.7424 32.8294 32.6714Z" fill="#E6E6E6"/>
<path d="M95.2747 67.2897H84.3956V240.132H95.2747V67.2897Z" fill="#E6E6E6"/>
<path d="M89.6703 78.5047C104.054 78.5047 115.714 60.9308 115.714 39.2523C115.714 17.5739 104.054 0 89.6703 0C75.2866 0 63.6264 17.5739 63.6264 39.2523C63.6264 60.9308 75.2866 78.5047 89.6703 78.5047Z" fill="#E6E6E6"/>
<path d="M89.6703 71.5485C101.505 71.5485 111.099 57.089 111.099 39.2523C111.099 21.4156 101.505 6.95612 89.6703 6.95612C77.8357 6.95612 68.2418 21.4156 68.2418 39.2523C68.2418 57.089 77.8357 71.5485 89.6703 71.5485Z" fill="#CCCCCC"/>
<path d="M120 249C186.274 249 240 245.916 240 242.111C240 238.306 186.274 235.222 120 235.222C53.7258 235.222 0 238.306 0 242.111C0 245.916 53.7258 249 120 249Z" fill="#E6E6E6"/>
<path d="M190.967 242.01C145.996 233.899 99.9379 233.899 54.9667 242.01C54.2523 242.139 53.5182 242.11 52.8163 241.925C52.1143 241.74 51.4615 241.402 50.9041 240.937C50.3466 240.472 49.8979 239.89 49.5898 239.232C49.2817 238.574 49.1216 237.857 49.1209 237.131V175.481H196.813V237.131C196.812 237.857 196.652 238.574 196.344 239.232C196.036 239.89 195.587 240.472 195.03 240.937C194.473 241.402 193.82 241.74 193.118 241.925C192.416 242.11 191.682 242.139 190.967 242.01Z" fill="white"/>
<path d="M183.297 129.961C179.887 129.958 176.5 130.525 173.276 131.639C168.575 121.436 161.062 112.786 151.62 106.705C142.178 100.624 131.198 97.3637 119.969 97.3069C108.739 97.2502 97.7271 100.399 88.224 106.385C78.7208 112.37 71.1211 120.943 66.3167 131.098C61.5859 129.771 56.6054 129.6 51.7949 130.6C46.9843 131.601 42.4845 133.744 38.6745 136.848C34.8646 139.952 31.856 143.927 29.9023 148.438C27.9486 152.949 27.107 157.863 27.4484 162.767C27.7897 167.672 29.304 172.422 31.8638 176.618C34.4235 180.814 37.9537 184.334 42.1569 186.88C46.3602 189.426 51.1133 190.923 56.0161 191.247C60.9188 191.571 65.8276 190.711 70.3287 188.74C75.7388 196.988 83.1281 203.749 91.8218 208.405C100.516 213.06 110.237 215.462 120.097 215.391C129.957 215.32 139.643 212.779 148.268 207.998C156.894 203.218 164.186 196.352 169.476 188.026C173.61 190.114 178.163 191.238 182.792 191.314C187.422 191.39 192.009 190.416 196.209 188.464C200.408 186.513 204.112 183.635 207.041 180.047C209.97 176.459 212.049 172.254 213.122 167.747C214.195 163.24 214.233 158.549 213.235 154.025C212.236 149.501 210.227 145.262 207.357 141.626C204.487 137.99 200.831 135.052 196.664 133.032C192.497 131.011 187.927 129.962 183.297 129.961Z" fill="white"/>
<path d="M60.989 156.35H60.3297C60.3072 147.567 62.25 138.89 66.0155 130.956L66.6114 131.238C62.8877 139.084 60.9666 147.664 60.989 156.35Z" fill="#3F3D56"/>
<path d="M179.011 156.35H178.352C178.372 147.864 176.539 139.477 172.98 131.775L173.579 131.499C177.178 139.288 179.032 147.769 179.011 156.35Z" fill="#3F3D56"/>
<path d="M49.2004 204.168L49.0414 203.528C49.2274 203.482 67.9655 198.877 95.426 196.592C120.771 194.484 158.949 193.975 196.894 203.528L196.733 204.168C158.881 194.639 120.787 195.145 95.4946 197.249C68.0832 199.529 49.386 204.122 49.2004 204.168Z" fill="#3F3D56"/>
<path d="M49.2004 213.074L49.0414 212.434C49.2274 212.388 67.9655 207.783 95.426 205.498C120.771 203.39 158.949 202.881 196.894 212.434L196.733 213.074C158.881 203.545 120.787 204.052 95.4946 206.155C68.0832 208.435 49.386 213.028 49.2004 213.074Z" fill="#3F3D56"/>
<path d="M49.2004 221.98L49.0414 221.34C49.2274 221.294 67.9655 216.689 95.426 214.404C120.771 212.296 158.949 211.787 196.894 221.34L196.733 221.98C158.881 212.451 120.787 212.958 95.4946 215.061C68.0832 217.341 49.386 221.934 49.2004 221.98Z" fill="#3F3D56"/>
<path d="M170.528 173.553L162.54 170.836L170.208 131.673L164.936 131.194C159.795 135.14 152.949 136.687 144.167 135.509L158.226 156.769L151.057 161.832L128.189 134.387C127.158 133.15 126.593 131.59 126.593 129.98C126.593 128.486 127.079 127.034 127.976 125.841C128.873 124.648 130.134 123.779 131.568 123.366L155.989 116.328L184.586 119.525C188.91 126.12 189.079 130.706 182.498 132.03L170.528 173.553Z" fill="#2F2E41"/>
<path d="M162.352 188.788C161.526 188.736 160.724 188.49 160.012 188.069C159.299 187.649 158.695 187.066 158.25 186.368C157.805 185.671 157.53 184.878 157.449 184.054C157.367 183.23 157.481 182.399 157.781 181.627L161.752 171.41C163.769 167.586 166.538 168.065 169.807 171.41L171.404 176.099C171.536 176.485 171.588 176.893 171.558 177.3C171.527 177.707 171.415 178.103 171.228 178.466L167.357 185.953C166.888 186.861 166.165 187.612 165.276 188.116C164.387 188.619 163.371 188.853 162.352 188.788Z" fill="#2F2E41"/>
<path d="M152.028 175.409C151.202 175.356 150.401 175.11 149.688 174.689C148.975 174.269 148.372 173.686 147.927 172.989C147.481 172.291 147.207 171.498 147.125 170.674C147.043 169.85 147.157 169.019 147.457 168.247L151.428 158.03C153.446 154.207 156.214 154.685 159.483 158.03L161.081 162.719C161.212 163.105 161.264 163.514 161.234 163.92C161.204 164.327 161.092 164.724 160.904 165.086L157.034 172.574C156.564 173.481 155.841 174.233 154.952 174.736C154.064 175.24 153.047 175.473 152.028 175.409Z" fill="#2F2E41"/>
<path d="M157.108 78.9231C162.049 78.9231 166.054 74.9154 166.054 69.9716C166.054 65.0278 162.049 61.0201 157.108 61.0201C152.167 61.0201 148.161 65.0278 148.161 69.9716C148.161 74.9154 152.167 78.9231 157.108 78.9231Z" fill="#FFB9B9"/>
<path d="M171.007 82.5998L158.705 88.9936L156.149 77.4844L164.616 72.2094L171.007 82.5998Z" fill="#FFB9B9"/>
<path d="M185.865 121.123C173.59 117.414 162.452 115.491 154.392 118.406C157.17 110.585 152.042 98.6438 146.404 86.436C148.836 83.254 152.715 82.0214 157.108 81.4807C161.913 84.972 165.264 82.7311 167.812 77.3246C173.368 77.1015 178.722 79.0702 183.947 82.4398C179.863 95.5303 180.598 108.421 185.865 121.123Z" fill="#3F3D56"/>
<path d="M154.232 120.324C152.294 121.467 150.505 123.393 148.8 125.759C145.919 123.994 143.384 121.985 141.387 119.596C139.989 117.902 139.036 115.886 138.614 113.73C138.192 111.574 138.315 109.347 138.971 107.25L144.43 89.4969C144.884 88.0224 145.764 86.7158 146.961 85.743L147.682 85.1572L154.871 98.7443L147.682 112.172C148.593 114.617 151.28 117.442 154.232 120.324Z" fill="#3F3D56"/>
<path d="M156.706 133.859C156.055 134.157 155.343 134.298 154.627 134.273C153.911 134.247 153.211 134.055 152.582 133.712C151.953 133.369 151.412 132.885 151.003 132.297C150.593 131.708 150.326 131.033 150.223 130.324L149.035 122.185L153.188 119.947L158.46 126.852C158.881 127.404 159.173 128.043 159.313 128.723C159.453 129.402 159.438 130.105 159.27 130.778C159.101 131.452 158.783 132.078 158.34 132.612C157.896 133.145 157.338 133.572 156.706 133.859Z" fill="#FFB9B9"/>
<path d="M166.134 69.5799L164.607 69.6253L160.369 63.6196C154.94 64.1812 150.491 66.5414 146.726 70.1567L146.344 67.6103C145.98 65.1821 146.56 62.7066 147.964 60.693C149.369 58.6794 151.491 57.2808 153.894 56.785H153.894C155.157 56.5245 156.459 56.5213 157.723 56.7755C158.986 57.0297 160.186 57.5361 161.25 58.2644C162.314 58.9928 163.22 59.9281 163.914 61.0147C164.609 62.1012 165.077 63.3166 165.292 64.5884L166.134 69.5799Z" fill="#2F2E41"/>
<path d="M148.954 125.762C148.657 125.11 148.516 124.397 148.541 123.681C148.567 122.965 148.759 122.264 149.101 121.635C149.444 121.006 149.929 120.465 150.516 120.055C151.104 119.646 151.779 119.378 152.488 119.275L160.622 118.086L162.859 122.242L155.958 127.517C155.407 127.938 154.768 128.23 154.088 128.37C153.409 128.51 152.707 128.495 152.034 128.327C151.361 128.158 150.735 127.84 150.201 127.396C149.668 126.952 149.242 126.393 148.954 125.762Z" fill="#FFB9B9"/>
<path d="M187.414 118.359C179.675 118.96 171.225 121.374 162.38 124.8C162.27 122.172 161.318 119.65 159.664 117.606C167.698 115.489 174.988 113.004 179.474 109.134L176.758 88.6738L182.669 81.9602L183.689 82.4925C184.536 82.9327 185.281 83.5462 185.875 84.293C186.47 85.0399 186.901 85.9035 187.14 86.8278C189.636 96.5416 190.745 105.849 189.983 114.607C190.081 115.438 189.875 116.275 189.403 116.965C188.93 117.655 188.224 118.15 187.414 118.359Z" fill="#3F3D56"/>
</svg>
