<svg width="120" height="120" viewBox="0 0 120 120" fill="none" xmlns="http://www.w3.org/2000/svg">
<g clip-path="url(#clip0)">
<path d="M112.564 60.2957C110.424 59.6823 108.231 60.1291 106.548 61.3266C105.29 62.2211 103.766 62.645 102.283 62.2211L81.8885 57.1802L78.014 70.6897L98.4083 75.7306C99.8914 76.1572 100.96 77.3254 101.552 78.75C102.344 80.657 103.967 82.1988 106.106 82.8122C109.838 83.8825 113.729 81.7255 114.799 77.9938C115.296 76.2643 115.096 74.4983 114.37 72.9968C115.783 72.1088 116.886 70.7181 117.383 68.9868C118.451 65.257 116.294 61.3641 112.564 60.2957Z" fill="#E0F4FF"/>
<path d="M30.6418 13.2412L11.2711 80.7953C17.2705 82.5147 25.9351 83.3808 35.1627 83.1821L71.5302 75.4514C76.1078 72.9694 80.333 69.4171 81.7557 64.4513C87.1171 45.7535 49.6271 18.685 30.6418 13.2412Z" fill="#FED2A4"/>
<path d="M117.615 83.8825C117.615 91.6452 111.323 97.9377 103.56 97.9377H16.4172C8.6554 97.9377 2.36206 91.6461 2.36206 83.8825H117.615Z" fill="#FF637B"/>
<path d="M103.56 97.9376L100.17 104.717C99.376 106.305 97.7528 107.308 95.9794 107.308H23.9978C22.2244 107.308 20.6012 106.305 19.8075 104.717L16.4173 97.9376H103.56Z" fill="#766E6E"/>
<path d="M71.5302 75.4523C70.307 72.0364 67.869 69.8273 63.2685 69.8273C55.5048 69.8273 53.898 76.1197 53.898 83.8825H72.638C72.638 80.7202 72.3716 77.8015 71.5302 75.4523Z" fill="#7FE881"/>
<path d="M44.5276 69.8273C36.9992 69.8273 35.2606 75.7443 35.1627 83.1821C35.1599 83.4137 35.1581 83.6481 35.1581 83.8825H53.898C53.898 76.1197 52.2913 69.8273 44.5276 69.8273Z" fill="#7FE881"/>
<path d="M30.6418 13.2412C39.3466 15.7361 42.0685 32.883 36.7182 51.5369C31.3696 70.1926 19.9759 83.2901 11.2711 80.7953C2.56623 78.2977 -0.291137 61.1527 5.05646 42.4969C10.4041 23.844 21.937 10.7437 30.6418 13.2412Z" fill="#FF637B"/>
<path d="M16.4529 45.7251C21.8317 26.9732 30.1987 31.7706 25.4599 48.3087C19.7836 68.096 11.8451 61.8045 16.4529 45.7251Z" fill="#E0F4FF"/>
<path d="M113.21 58.0435C110.451 57.2534 107.529 57.7542 105.191 59.4177C104.742 59.7372 103.851 60.2335 102.927 59.9689C102.9 59.9615 102.872 59.9542 102.845 59.9469L83.8201 55.2447C80.7247 44.2767 69.3025 33.8699 62.578 28.5141C52.3872 20.397 40.1045 13.5177 31.2871 10.99H31.2861C18.1099 7.20975 6.63373 28.4958 2.80408 41.8515C-2.34211 59.8032 -0.192447 76.1023 7.50348 81.5396H2.36188C1.06824 81.5396 0.0199553 82.5888 0.0199553 83.8825C0.0199553 88.2605 1.72467 92.3786 4.82281 95.4795C7.5694 98.2233 11.1162 99.8712 14.9357 100.212L17.7116 105.764C18.91 108.161 21.3188 109.65 23.9976 109.65H95.9792C98.658 109.65 101.067 108.161 102.265 105.764L105.043 100.21C113.392 99.4574 119.958 92.4234 119.958 83.8825C119.958 82.5888 118.909 81.5396 117.615 81.5396H115.64C116.259 80.6845 116.743 79.7113 117.05 78.6392C117.508 77.0462 117.533 75.3754 117.136 73.7906C118.312 72.6563 119.177 71.2271 119.635 69.6314C121.06 64.6555 118.187 59.4699 113.21 58.0435ZM107.907 63.2346C109.077 62.4023 110.539 62.1524 111.919 62.5479C114.406 63.2602 115.843 65.853 115.131 68.3405C114.813 69.451 114.099 70.4004 113.124 71.0138C112.114 71.6483 111.742 72.9419 112.262 74.0167C112.764 75.0559 112.866 76.2387 112.547 77.3474C111.835 79.8312 109.235 81.2723 106.752 80.56C105.372 80.1645 104.266 79.1766 103.715 77.85C102.792 75.6299 101.136 74.0772 99.0554 73.4793C99.027 73.4711 98.9986 73.4637 98.9702 73.4564L82.1044 69.2871C82.9531 67.9541 83.5903 66.5524 84.0068 65.0967C84.4481 63.5577 84.6477 61.9409 84.6083 60.2655L101.684 64.4861C103.753 65.062 105.961 64.6188 107.907 63.2346ZM79.5033 63.8058C78.4743 67.3993 75.638 70.1129 72.5142 72.1426C70.5632 69.0848 67.4147 67.4854 63.2683 67.4854C58.99 67.4854 55.8424 69.1187 53.8979 72.3367C51.9542 69.1187 48.8066 67.4854 44.5283 67.4854C34.8036 67.4854 33.1904 75.9155 32.8929 80.8667C29.055 80.8768 25.348 80.9317 21.9468 80.5802C30.2653 74.6265 36.1046 62.1762 38.9693 52.1832C41.8294 42.2131 43.3629 28.7475 39.4545 19.2746C46.0106 22.4872 53.2451 27.0694 59.6593 32.1789C68.4795 39.2038 82.585 53.0621 79.5033 63.8058ZM69.3245 76.2415C69.8143 77.6093 70.1155 79.3552 70.2355 81.5405H56.3039C56.7369 73.8373 59.4139 72.1701 63.2683 72.1701C66.4919 72.1701 68.3028 73.3878 69.3245 76.2415ZM51.4918 81.5396H37.5603C37.9878 73.8153 40.6648 72.1701 44.5274 72.1701C48.3818 72.1701 51.0588 73.8364 51.4918 81.5396ZM7.30847 43.1424C10.7939 30.9851 20.9627 12.9025 29.9953 15.4925C29.9971 15.4934 29.998 15.4934 29.9989 15.4934C39.5424 18.2355 37.5236 40.231 34.4658 50.8914C30.9749 63.0688 20.915 81.1212 11.9163 78.5431C2.33807 75.7956 4.24145 53.8422 7.30847 43.1424ZM103.56 95.5948H85.7564C84.4628 95.5948 83.4136 96.644 83.4136 97.9376C83.4136 99.2313 84.4628 100.28 85.7564 100.28H99.7695L98.0748 103.669C97.6747 104.468 96.8718 104.965 95.9792 104.965H23.9976C23.105 104.965 22.3021 104.468 21.9029 103.669L20.2083 100.28H67.0165C68.3092 100.28 69.3584 99.2313 69.3584 97.9376C69.3584 96.644 68.3092 95.5948 67.0165 95.5948H16.4171C13.2896 95.5948 10.348 94.3762 8.13519 92.1661C6.48633 90.5155 5.38953 88.4583 4.93817 86.2225H115.037C113.948 91.5619 109.216 95.5948 103.56 95.5948ZM74.9266 81.5396C74.8351 79.6427 74.6272 78.0029 74.2894 76.5591C75.9593 75.5383 77.437 74.4388 78.7087 73.2742L97.7947 77.9919C98.6965 78.2694 99.1799 79.1474 99.3886 79.6481C99.6697 80.3265 100.025 80.9592 100.442 81.5396H74.9266Z" fill="#2D2D2D"/>
<path d="M16.7908 62.8537C22.4268 64.4687 26.0944 54.5938 27.7121 48.9542C30.4102 39.538 29.4196 32.6706 25.188 31.4575C23.9374 31.0986 21.4389 31.0428 18.7674 34.6939C17.0352 37.0615 15.499 40.5551 14.2008 45.0796C11.5036 54.4931 12.5436 61.636 16.7908 62.8537ZM18.7042 46.3705C20.8218 38.9877 23.0859 36.5506 23.8962 36.0681C24.4922 37.0065 25.1926 40.7391 23.2077 47.6633C21.0974 55.0223 18.9505 57.6462 18.0753 58.2175C17.4646 57.2012 16.7267 53.2718 18.7042 46.3705Z" fill="#2D2D2D"/>
<path d="M78.729 97.9377C78.729 99.2313 77.6798 100.28 76.3862 100.28C75.0925 100.28 74.0442 99.2313 74.0442 97.9377C74.0442 96.644 75.0925 95.5948 76.3862 95.5948C77.6798 95.5948 78.729 96.644 78.729 97.9377Z" fill="#2D2D2D"/>
</g>
<defs>
<clipPath id="clip0">
<rect width="120" height="120" fill="white"/>
</clipPath>
</defs>
</svg>
