<svg width="120" height="120" viewBox="0 0 120 120" fill="none" xmlns="http://www.w3.org/2000/svg">
<path d="M86.25 108.75C88.3125 108.75 90 110.438 90 112.5C90 113.531 89.5875 114.469 88.8937 115.144C88.2188 115.837 87.2812 116.25 86.25 116.25H33.75C31.6875 116.25 30 114.562 30 112.5C30 111.469 30.4125 110.531 31.1063 109.856C31.7813 109.163 32.7188 108.75 33.75 108.75H56.25H63.75H86.25Z" fill="#969FAA"/>
<path d="M115.219 66.6562C110.381 90.6562 89.175 108.75 63.75 108.75H56.25C30.8063 108.75 9.6 90.6375 4.78125 66.6187C9.80625 73.5375 32.625 78.75 60 78.75C87.3375 78.75 110.138 73.5375 115.219 66.6562Z" fill="#CCD1D9"/>
<path d="M116.25 56.25C116.25 59.8125 115.894 63.3 115.219 66.6562C110.138 73.5375 87.3375 78.75 60 78.75C32.625 78.75 9.80625 73.5375 4.78125 66.6187C4.10625 63.2625 3.75 59.7938 3.75 56.25C3.75 64.5375 28.9313 71.25 60 71.25C91.0687 71.25 116.25 64.5375 116.25 56.25Z" fill="#AAB2BD"/>
<path d="M71.25 16.875V18.3C71.25 25.8 65.175 31.875 57.675 31.875H55.2562C52.9688 31.875 50.775 31.2937 48.8438 30.2437C48.6 30.1312 48.3563 30 48.1312 29.85C46.0312 28.5375 44.2875 26.6625 43.125 24.375H7.5C5.4375 24.375 3.75 22.6875 3.75 20.625C3.75 18.5625 5.4375 16.875 7.5 16.875H71.25Z" fill="#CF9E76"/>
<path d="M102.281 46.3687C110.981 48.9937 116.25 52.4625 116.25 56.25C116.25 64.5375 91.0687 71.25 60 71.25C28.9313 71.25 3.75 64.5375 3.75 56.25C3.75 48.9938 23.025 42.9562 48.6562 41.55H48.75V50.625C48.75 51.6562 49.1625 52.5938 49.8563 53.2687C50.5312 53.9625 51.4688 54.375 52.5 54.375C54.5625 54.375 56.25 52.6875 56.25 50.625V43.125C56.25 42.0938 56.6625 41.1563 57.3563 40.4813C58.0312 39.7875 58.9688 39.375 60 39.375C62.0625 39.375 63.75 41.0625 63.75 43.125V60C63.75 61.0312 64.1625 61.9688 64.8563 62.6437C65.5312 63.3375 66.4688 63.75 67.5 63.75C69.5625 63.75 71.25 62.0625 71.25 60V41.55C79.4812 42 87.0563 42.9187 93.5625 44.2125C96.75 44.85 99.675 45.5625 102.281 46.3687Z" fill="#FFEAA7"/>
<path d="M71.25 41.55V60C71.25 62.0625 69.5625 63.75 67.5 63.75C66.4688 63.75 65.5312 63.3375 64.8563 62.6437C64.1625 61.9687 63.75 61.0312 63.75 60V43.125C63.75 41.0625 62.0625 39.375 60 39.375C58.9688 39.375 58.0312 39.7875 57.3563 40.4812C56.6625 41.1562 56.25 42.0938 56.25 43.125V50.625C56.25 52.6875 54.5625 54.375 52.5 54.375C51.4688 54.375 50.5313 53.9625 49.8563 53.2687C49.1625 52.5937 48.75 51.6562 48.75 50.625V41.55V30.4312L48.8437 30.2437C50.775 31.2937 52.9687 31.875 55.2562 31.875H57.675C65.175 31.875 71.25 25.8 71.25 18.3V41.55Z" fill="#FCD770"/>
<path d="M84.375 63.75C87.4816 63.75 90 62.0711 90 60C90 57.9289 87.4816 56.25 84.375 56.25C81.2684 56.25 78.75 57.9289 78.75 60C78.75 62.0711 81.2684 63.75 84.375 63.75Z" fill="#FF826E"/>
<path d="M104.548 45.1556C106.144 39.8438 108.857 36.7031 111.518 33.6431C114.915 29.7356 118.125 26.0456 118.125 18.75C118.125 13.5806 113.919 9.375 108.75 9.375C103.581 9.375 99.375 13.5806 99.375 18.75C99.375 23.9194 103.581 28.125 108.75 28.125V24.375C105.649 24.375 103.125 21.8512 103.125 18.75C103.125 15.6488 105.649 13.125 108.75 13.125C111.851 13.125 114.375 15.6488 114.375 18.75C114.375 24.6431 111.864 27.5288 108.688 31.1831C105.977 34.2994 102.842 37.9331 100.988 44.07C99.1725 43.5656 97.2581 43.1025 95.265 42.6787C94.0387 32.6006 89.82 27.7144 86.3138 23.6831C83.1356 20.0287 80.625 17.1431 80.625 11.25C80.625 8.14875 83.1488 5.625 86.25 5.625C89.3512 5.625 91.875 8.14875 91.875 11.25C91.875 14.3512 89.3512 16.875 86.25 16.875V20.625C91.4194 20.625 95.625 16.4194 95.625 11.25C95.625 6.08063 91.4194 1.875 86.25 1.875C81.0806 1.875 76.875 6.08063 76.875 11.25C76.875 18.5456 80.085 22.2356 83.4825 26.1431C86.7881 29.9438 90.1781 33.8588 91.3969 41.925C85.6425 40.8994 79.4006 40.1831 73.1231 39.7819V18.3075V16.875V15H7.5C4.39875 15 1.875 17.5238 1.875 20.625C1.875 23.7262 4.39875 26.25 7.5 26.25H42.015C43.2469 28.3125 44.9269 29.9944 46.875 31.2544V39.7838C24.2025 41.2256 1.875 46.8 1.875 56.25C1.875 79.245 16.2319 98.94 36.4463 106.875H33.75C30.6488 106.875 28.125 109.399 28.125 112.5C28.125 115.601 30.6488 118.125 33.75 118.125H86.25C89.3512 118.125 91.875 115.601 91.875 112.5C91.875 109.399 89.3512 106.875 86.25 106.875H83.5537C103.768 98.94 118.125 79.245 118.125 56.25C118.125 51.6037 112.725 47.8969 104.548 45.1556ZM44.8031 23.5369L44.2837 22.5H7.5C6.465 22.5 5.625 21.66 5.625 20.625C5.625 19.59 6.465 18.75 7.5 18.75H69.3656C69.1331 24.9937 63.9806 30 57.6825 30H55.26C50.8031 30 46.7962 27.5231 44.8031 23.5369ZM55.26 33.75H57.6825C62.355 33.75 66.5419 31.6556 69.375 28.3669V60C69.375 61.035 68.535 61.875 67.5 61.875C66.465 61.875 65.625 61.035 65.625 60V43.125C65.625 40.0238 63.1012 37.5 60 37.5C56.8988 37.5 54.375 40.0238 54.375 43.125V50.625C54.375 51.66 53.535 52.5 52.5 52.5C51.465 52.5 50.625 51.66 50.625 50.625V33.0188C52.1006 33.48 53.6531 33.75 55.26 33.75ZM113.462 65.7844C109.013 71.2125 89.0513 76.875 60 76.875C30.945 76.875 10.9838 71.2125 6.53813 65.7844C6.35437 64.8225 6.20062 63.8494 6.07125 62.8687C15.27 69.57 38.1619 73.125 60 73.125C81.8381 73.125 104.73 69.57 113.929 62.8687C113.799 63.8494 113.646 64.8225 113.462 65.7844ZM86.25 110.625C87.285 110.625 88.125 111.465 88.125 112.5C88.125 113.535 87.285 114.375 86.25 114.375H33.75C32.715 114.375 31.875 113.535 31.875 112.5C31.875 111.465 32.715 110.625 33.75 110.625H56.25H63.75H86.25ZM63.75 106.875H56.25C33.705 106.875 14.5631 92.0587 8.02875 71.655C17.5088 77.0869 37.2281 80.625 60 80.625C82.7719 80.625 102.491 77.0869 111.971 71.6531C105.437 92.0588 86.295 106.875 63.75 106.875ZM60 69.375C26.31 69.375 5.625 61.7306 5.625 56.25C5.625 51.3375 21.3581 45.2006 46.875 43.5525V50.625C46.875 53.7262 49.3988 56.25 52.5 56.25C55.6012 56.25 58.125 53.7262 58.125 50.625V43.125C58.125 42.09 58.965 41.25 60 41.25C61.035 41.25 61.875 42.09 61.875 43.125V60C61.875 63.1012 64.3988 65.625 67.5 65.625C70.6012 65.625 73.125 63.1012 73.125 60V43.5562C80.1244 44.0081 86.385 44.7919 91.785 45.8025C91.8375 46.7419 91.875 47.7113 91.875 48.75V52.5H95.625V48.75C95.625 47.9981 95.6025 47.2819 95.5762 46.575C97.1775 46.9331 98.7019 47.3044 100.114 47.6981C99.6525 50.1769 99.375 52.9875 99.375 56.25H103.125C103.125 53.4038 103.341 50.9644 103.706 48.81C110.563 51.1369 114.375 53.8387 114.375 56.25C114.375 61.7306 93.69 69.375 60 69.375Z" fill="#2D2D2D"/>
<path d="M99.9394 79.6819C99.1444 80.9025 98.2819 82.0931 97.3781 83.2219L100.301 85.5694C101.284 84.3469 102.219 83.0531 103.082 81.7294L99.9394 79.6819Z" fill="#2D2D2D"/>
<path d="M76.2056 97.5412L77.2894 101.13C84.6506 98.9044 91.4288 94.8375 96.8944 89.3662L94.2431 86.715C89.2106 91.7531 82.9744 95.4956 76.2056 97.5412Z" fill="#2D2D2D"/>
<path d="M21.24 81.405L18.2006 83.5987C18.9619 84.6544 19.7737 85.6875 20.6137 86.67L23.4637 84.2306C22.6912 83.3269 21.9431 82.3762 21.24 81.405Z" fill="#2D2D2D"/>
<path d="M23.2706 89.5294C24.1819 90.4313 25.1531 91.3163 26.1525 92.1581L28.5656 89.2875C27.6431 88.5113 26.7488 87.6956 25.9069 86.8631L23.2706 89.5294Z" fill="#2D2D2D"/>
<path d="M29.2425 94.5431C30.3037 95.295 31.4081 96.0094 32.5237 96.6675L34.425 93.4331C33.3994 92.8313 32.3869 92.175 31.4119 91.485L29.2425 94.5431Z" fill="#2D2D2D"/>
<path d="M31.875 58.125C31.875 55.0237 29.3512 52.5 26.25 52.5H16.875V56.25H26.25C27.285 56.25 28.125 57.09 28.125 58.125C28.125 61.2262 30.6488 63.75 33.75 63.75H43.125V60H33.75C32.715 60 31.875 59.16 31.875 58.125Z" fill="#2D2D2D"/>
<path d="M84.375 54.375C80.1694 54.375 76.875 56.8444 76.875 60C76.875 63.1556 80.1694 65.625 84.375 65.625C88.5806 65.625 91.875 63.1556 91.875 60C91.875 56.8444 88.5806 54.375 84.375 54.375ZM84.375 61.875C82.0856 61.875 80.625 60.765 80.625 60C80.625 59.235 82.0856 58.125 84.375 58.125C86.6644 58.125 88.125 59.235 88.125 60C88.125 60.765 86.6644 61.875 84.375 61.875Z" fill="#2D2D2D"/>
</svg>
