<svg width="120" height="120" viewBox="0 0 120 120" fill="none" xmlns="http://www.w3.org/2000/svg">
<path d="M60.525 33.4376C60.525 40.5415 54.7664 46.3001 47.6625 46.3001C41.325 46.3001 36.0562 41.7157 34.9969 35.6829C34.868 34.954 34.8 34.204 34.8 33.4376C34.8 26.3337 40.5586 20.5751 47.6625 20.5751C50.6765 20.5751 53.4492 21.611 55.6406 23.3454C58.6148 25.7032 60.525 29.3477 60.525 33.4376Z" fill="#EB5163"/>
<path d="M60.525 33.4376C60.525 40.5415 54.7664 46.3001 47.6625 46.3001C41.325 46.3001 36.0562 41.7157 34.9969 35.6829H54.0797C53.5664 31.2227 54.1125 27.0251 55.6406 23.3454C58.6148 25.7032 60.525 29.3477 60.525 33.4376Z" fill="#D63249"/>
<path d="M56.9107 35.6838C57.0513 36.8041 57.2669 37.9291 57.5576 39.0541C57.7662 39.8651 58.406 40.5026 59.2169 40.7112C66.8974 42.6823 74.5919 41.2432 79.7388 36.0963C79.8747 35.9604 80.0083 35.8221 80.1372 35.6838C84.956 30.544 86.2732 23.0557 84.3536 15.5745C84.1451 14.7635 83.5052 14.1237 82.6943 13.9151C75.0115 11.9416 67.3169 13.383 62.1701 18.5299C57.7779 22.9198 56.0833 29.1705 56.9107 35.6838Z" fill="#00DF97"/>
<path d="M56.9107 35.6838C57.0513 36.8041 57.2669 37.9291 57.5575 39.0541C57.7661 39.8651 58.406 40.5026 59.2169 40.7112C66.8974 42.6823 74.5919 41.2432 79.7388 36.0963C79.8747 35.9604 80.0083 35.8221 80.1372 35.6838H56.9107Z" fill="#00B579"/>
<path d="M106.875 49.8204H13.125V88.7454H106.875V49.8204Z" fill="#F16E79"/>
<path d="M106.875 49.8204V55.6587H90.6023C88.5914 55.6587 86.9531 57.2946 86.9531 59.3079V72.3555C86.9531 77.5165 82.7555 81.7141 77.5945 81.7141C72.4359 81.7141 68.2383 77.5165 68.2383 72.3555V59.3079C68.2383 57.2946 66.6 55.6587 64.5867 55.6587C62.5758 55.6587 60.9375 57.2946 60.9375 59.3079V64.5602C60.9375 69.4704 56.9414 73.4665 52.0312 73.4665C47.1211 73.4665 43.125 69.4704 43.125 64.5602V59.3079C43.125 57.2946 41.4867 55.6587 39.4758 55.6587H13.125V49.8204H106.875Z" fill="#EB5163"/>
<path d="M106.875 49.8204H13.125V63.3696H106.875V49.8204Z" fill="#A86552"/>
<path d="M106.875 49.8204V55.6587H90.6023C88.5914 55.6587 86.9531 57.2946 86.9531 59.3079V63.3696H68.2383V59.3079C68.2383 57.2946 66.6 55.6587 64.5867 55.6587C62.5758 55.6587 60.9375 57.2946 60.9375 59.3079V63.3696H43.125V59.3079C43.125 57.2946 41.4867 55.6587 39.4758 55.6587H13.125V49.8204H106.875Z" fill="#915040"/>
<path d="M108.554 96.2194V105.284C108.554 106.682 107.419 107.817 106.021 107.817H13.9793C12.5813 107.817 11.4464 106.682 11.4464 105.284V96.2194H108.554Z" fill="#EFA66F"/>
<path d="M108.554 96.2194H11.4462V101.544H108.554V96.2194Z" fill="#E88F52"/>
<path d="M7.63758 98.7232H112.362C115.61 98.7232 118.242 96.0907 118.242 92.8434V88.1011C118.242 87.1268 117.452 86.3372 116.478 86.3372H3.52172C2.54742 86.3372 1.75781 87.127 1.75781 88.1011V92.8434C1.75781 96.0907 4.39031 98.7232 7.63758 98.7232Z" fill="#F4BC8E"/>
<path d="M6.21094 45.9743C6.21094 49.7688 9.28711 52.845 13.0816 52.845H39.4748C43.0441 52.845 45.9375 55.7384 45.9375 59.3077V64.5591C45.9375 67.9244 48.6659 70.6528 52.0312 70.6528C55.3966 70.6528 58.125 67.9244 58.125 64.5591V59.3077C58.125 55.7384 61.0184 52.845 64.5877 52.845C68.157 52.845 71.0503 55.7384 71.0503 59.3077V72.3565C71.0503 75.9712 73.9807 78.9016 77.5955 78.9016C81.2102 78.9016 84.1406 75.9712 84.1406 72.3565V59.3077C84.1406 55.7384 87.034 52.845 90.6033 52.845H106.918C110.713 52.845 113.789 49.7688 113.789 45.9743C113.789 42.1798 110.713 39.1036 106.918 39.1036H13.0816C9.28711 39.1038 6.21094 42.1798 6.21094 45.9743Z" fill="#FBDBB7"/>
<path d="M116.478 84.5794H108.633V54.4313C112.572 53.6339 115.547 50.1452 115.547 45.9745C115.547 41.2167 111.676 37.346 106.918 37.346H98.0299C97.0591 37.346 96.2721 38.133 96.2721 39.1038C96.2721 40.0746 97.0591 40.8616 98.0299 40.8616H106.918C109.738 40.8616 112.031 43.1552 112.031 45.9745C112.031 48.7936 109.738 51.0872 106.918 51.0872H90.6033C86.0705 51.0872 82.3828 54.7748 82.3828 59.3077V72.3565C82.3828 74.9963 80.2352 77.1438 77.5955 77.1438C74.9557 77.1438 72.8081 74.9963 72.8081 72.3565V59.3077C72.8081 54.7748 69.1205 51.0872 64.5877 51.0872C60.0548 51.0872 56.3672 54.7751 56.3672 59.3077V64.5591C56.3672 66.9499 54.4221 68.895 52.0312 68.895C49.6404 68.895 47.6953 66.9499 47.6953 64.5591V59.3077C47.6953 54.7748 44.0077 51.0872 39.4748 51.0872H13.0816C10.2623 51.0872 7.96875 48.7936 7.96875 45.9745C7.96875 43.1552 10.2623 40.8616 13.0816 40.8616H89.9388C90.9096 40.8616 91.6966 40.0746 91.6966 39.1038C91.6966 38.133 90.9096 37.346 89.9388 37.346H80.9735C80.9759 37.3437 80.9784 37.3413 80.9808 37.339C86.3484 31.9713 88.2455 23.6719 86.0555 15.1378C85.687 13.703 84.567 12.5824 83.1323 12.2133C74.5987 10.0188 66.2977 11.9154 60.9277 17.2859C59.4178 18.7957 58.1845 20.513 57.2374 22.3913C54.5967 20.0998 51.2128 18.817 47.6623 18.817C46.7287 18.817 45.8168 18.9087 44.9316 19.0767C43.8002 16.1407 41.7783 12.9098 38.1614 10.6859C37.3341 10.1773 36.2517 10.4355 35.7434 11.2624C35.2348 12.0895 35.493 13.1721 36.3199 13.6805C39.045 15.356 40.6308 17.8434 41.5566 20.1581C36.536 22.4759 33.0417 27.555 33.0417 33.4378C33.0417 34.7742 33.222 36.0813 33.5728 37.346H13.0816C8.32383 37.346 4.45312 41.2167 4.45312 45.9745C4.45312 50.1452 7.42805 53.6339 11.3672 54.4313V84.5794H3.52172C1.57992 84.5794 0 86.1591 0 88.1011V92.8434C0 97.0549 3.42633 100.481 7.63758 100.481H9.68859V105.285C9.68859 107.651 11.6133 109.575 13.9791 109.575H106.021C108.387 109.575 110.311 107.651 110.311 105.285V100.481H112.362C116.574 100.481 120 97.0547 120 92.8434V88.1011C120 86.1591 118.42 84.5794 116.478 84.5794ZM63.4134 19.7716C67.9627 15.2227 74.8308 13.7091 82.2567 15.618C82.447 15.6668 82.6015 15.8215 82.6502 16.0116C84.5562 23.4387 83.0416 30.3061 78.4948 34.853C77.5446 35.8031 76.4754 36.6333 75.3166 37.3202C75.3033 37.3282 75.2911 37.3376 75.278 37.3458H63.4064L67.1766 33.5756C68.4616 33.8913 69.7711 34.0523 71.0937 34.0523C71.704 34.0523 72.3171 34.0186 72.9316 33.9509C73.8966 33.8447 74.5929 32.9763 74.4867 32.0114C74.3805 31.0463 73.5115 30.3495 72.5473 30.4563C71.7752 30.5412 71.0067 30.5576 70.245 30.5074L72.1289 28.6235C73.414 28.9392 74.7237 29.1002 76.0462 29.1002C76.6566 29.1002 77.2697 29.0665 77.8842 28.9987C78.8491 28.8926 79.5455 28.0242 79.4393 27.0593C79.3331 26.0941 78.4645 25.3969 77.4998 25.5042C76.728 25.5891 75.9593 25.6052 75.1976 25.5551L77.5966 23.156C78.2831 22.4695 78.2831 21.3565 77.5966 20.6702C76.9102 19.9837 75.7971 19.9837 75.1109 20.6702L72.712 23.0691C72.6619 22.3073 72.678 21.5388 72.7629 20.7668C72.8691 19.8019 72.1727 18.9335 71.2078 18.8273C70.2448 18.7214 69.3745 19.4175 69.2684 20.3824C69.0544 22.328 69.1842 24.2578 69.6455 26.1354L67.7597 28.0212C67.7095 27.2595 67.7257 26.4909 67.8105 25.7189C67.9167 24.7538 67.2204 23.8856 66.2555 23.7795C65.2908 23.6735 64.4222 24.3698 64.316 25.3345C64.102 27.2803 64.2319 29.2102 64.6931 31.0877L58.8799 36.9009C57.6103 30.1409 59.2313 23.9543 63.4134 19.7716ZM36.5571 33.4376C36.5571 29.157 38.993 25.437 42.5501 23.584C42.8363 25.0884 42.8515 26.1263 42.8515 26.1595C42.8536 27.1284 43.6399 27.9131 44.6093 27.9131C45.5801 27.9131 46.3671 27.1261 46.3671 26.1553C46.3671 25.9978 46.3537 24.5201 45.9263 22.4688C46.492 22.3795 47.0716 22.3322 47.6623 22.3322C50.7877 22.3322 53.7434 23.6414 55.8471 25.9362C54.829 29.4288 54.6567 33.3068 55.387 37.3455H37.2645C36.7952 36.1005 36.5571 34.7888 36.5571 33.4376ZM90.6033 54.6028H105.117V61.6111H85.8984V59.3077C85.8984 56.7136 88.009 54.6028 90.6033 54.6028ZM64.5877 54.6028C67.182 54.6028 69.2925 56.7134 69.2925 59.3077V61.6111H59.8828V59.3077C59.8828 56.7136 61.9934 54.6028 64.5877 54.6028ZM44.1797 59.3077V61.6111H14.8828V54.6028H39.4748C42.0691 54.6028 44.1797 56.7136 44.1797 59.3077ZM116.484 92.8434C116.484 95.1162 114.635 96.9654 112.362 96.9654H94.0455C93.0748 96.9654 92.2877 97.7524 92.2877 98.7232C92.2877 99.694 93.0748 100.481 94.0455 100.481H106.796V105.285C106.796 105.712 106.448 106.06 106.021 106.06H13.9791C13.5518 106.06 13.2042 105.712 13.2042 105.285V100.481H85.9545C86.9252 100.481 87.7123 99.694 87.7123 98.7232C87.7123 97.7524 86.9252 96.9654 85.9545 96.9654H7.63758C5.36484 96.9654 3.51562 95.1162 3.51562 92.8434L3.52172 88.095H47.9857C48.9565 88.095 49.7435 87.308 49.7435 86.3372C49.7435 85.3664 48.9565 84.5794 47.9857 84.5794H14.8828V65.127H44.2024C44.4947 69.192 47.8929 72.4109 52.0312 72.4109C56.1696 72.4109 59.5678 69.1922 59.8601 65.127H69.2925V72.3567C69.2925 76.935 73.0172 80.6597 77.5955 80.6597C82.1738 80.6597 85.8984 76.935 85.8984 72.3567V65.127H105.117V84.5794H56.0768C55.106 84.5794 54.319 85.3664 54.319 86.3372C54.319 87.308 55.106 88.095 56.0768 88.095L116.484 88.1011V92.8434Z" fill="#2D2D2D"/>
<path d="M21.8897 68.895H21.8653C20.8945 68.895 20.1075 69.682 20.1075 70.6528C20.1075 71.6236 20.8945 72.4106 21.8653 72.4106H21.8897C22.8605 72.4106 23.6475 71.6236 23.6475 70.6528C23.6475 69.682 22.8605 68.895 21.8897 68.895Z" fill="#2D2D2D"/>
<path d="M27.1048 73.0952H27.0804C26.1096 73.0952 25.3226 73.8823 25.3226 74.853C25.3226 75.8238 26.1096 76.6109 27.0804 76.6109H27.1048C28.0755 76.6109 28.8626 75.8238 28.8626 74.853C28.8626 73.8823 28.0758 73.0952 27.1048 73.0952Z" fill="#2D2D2D"/>
<path d="M95.625 71.344H95.6494C96.6202 71.344 97.4072 70.5569 97.4072 69.5862C97.4072 68.6154 96.6202 67.8284 95.6494 67.8284H95.625C94.6542 67.8284 93.8672 68.6154 93.8672 69.5862C93.8672 70.5569 94.6542 71.344 95.625 71.344Z" fill="#2D2D2D"/>
</svg>
