<svg width="120" height="120" viewBox="0 0 120 120" fill="none" xmlns="http://www.w3.org/2000/svg">
<path d="M116.25 67.4063V71.3437C116.25 77.9812 113.475 84.2812 108.656 88.8187L101.362 87.7125C103.706 83.85 105 79.35 105 74.7V67.8C105 63.9188 104.1 60.15 102.45 56.775C101.231 54.2625 99.5625 51.975 97.5187 50.0063L97.5375 49.9875C98.5875 48.075 100.594 46.875 102.825 46.875C104.119 46.875 105.375 47.2875 106.425 48.0562C112.612 52.6312 116.25 59.7938 116.25 67.4063Z" fill="#FCD770"/>
<path d="M95.325 48.075C96.1125 48.675 96.8625 49.3125 97.5187 50.0062C99.5625 51.975 101.231 54.2625 102.45 56.775C104.1 60.15 105 63.9187 105 67.8V74.7C105 79.35 103.706 83.85 101.363 87.7125L83.775 85.0125V84.9938C82.9313 81.75 82.5 78.4312 82.5 75.0562V67.4438C82.5 64.8375 82.7625 62.2312 83.2687 59.6812C84.1875 59.8875 85.1813 60 86.25 60C90.3938 60 93.75 58.3125 93.75 56.25C93.75 54.9187 92.3625 53.7562 90.2813 53.1L90.8438 46.95C91.1438 46.8938 91.4625 46.875 91.7813 46.875C93.0563 46.875 94.3125 47.3062 95.325 48.075Z" fill="#FCD770"/>
<path d="M72.6937 47.6813C73.6875 48.2438 74.4937 49.0687 75.0375 50.1V50.1187C70.2562 54.7125 67.5 61.0875 67.5 67.8V74.7C67.5 77.4563 67.9688 80.1563 68.85 82.7063L58.3313 81.0938C56.9813 78.0563 56.25 74.7563 56.25 71.3438V67.4063C56.25 66 56.3813 64.5938 56.625 63.225C56.7 62.8313 56.775 62.4375 56.8687 62.0438C58.1437 56.5125 61.3688 51.5437 66.075 48.0562C67.125 47.2875 68.3812 46.875 69.675 46.875C70.7625 46.875 71.7937 47.1563 72.6937 47.6813Z" fill="#FCD770"/>
<path d="M81.6562 46.9125L82.2187 53.1C80.1375 53.7562 78.75 54.9187 78.75 56.25C78.75 57.7875 80.6063 59.1 83.2688 59.6812C82.7625 62.2312 82.5 64.8375 82.5 67.4438V75.0562C82.5 78.4312 82.9313 81.75 83.775 84.9938L72 83.1937L68.85 82.7062C67.9688 80.1562 67.5 77.4562 67.5 74.7V67.8C67.5 61.0875 70.2563 54.7125 75.0375 50.1187V50.1C75.7875 49.3687 76.575 48.6937 77.4188 48.075C78.4688 47.3062 79.7437 46.875 81.0562 46.875C81.2625 46.875 81.45 46.8938 81.6375 46.9125H81.6562Z" fill="#FCD770"/>
<path d="M93.75 56.25C93.75 58.3125 90.3938 60 86.25 60C85.1813 60 84.1875 59.8875 83.2687 59.6812C80.6062 59.1 78.75 57.7875 78.75 56.25C78.75 54.9188 80.1375 53.7562 82.2187 53.1L81.6562 46.9125L80.6437 35.8687C80.625 35.7 80.625 35.55 80.625 35.3813C80.625 32.4 83.025 30 86.0062 30H86.4938C87.975 30 89.325 30.6 90.3 31.575C91.275 32.55 91.875 33.9 91.875 35.3813C91.875 35.55 91.875 35.7 91.8563 35.8687L90.8438 46.95L90.2813 53.1C92.3625 53.7562 93.75 54.9188 93.75 56.25Z" fill="#CF9E76"/>
<path d="M44.8312 11.4937C45.4875 11.3437 46.1813 11.25 46.875 11.25C49.9313 11.25 52.6688 12.7125 54.375 15L54.3375 15.1875C53.7375 15.0562 53.1375 15 52.5 15C48.6188 15 45.3 17.3437 43.875 20.7C43.6312 20.6812 43.3875 20.625 43.125 20.625C38.4188 20.625 34.5562 24.1125 33.8812 28.6312C28.4062 30.2062 24.375 35.25 24.375 41.25C24.375 46.3687 27.3 50.775 31.575 52.95C30.5813 54.4312 30 56.2125 30 58.125C30 61.4625 31.7625 64.3687 34.3875 66.0375C33.9937 67.0687 33.75 68.1937 33.75 69.375C33.75 74.55 37.95 78.8062 43.125 78.8062C42.6375 78.7687 42.1688 78.75 41.7 78.75H41.25C37.5938 78.75 34.1813 79.8 31.2938 81.6187L26.25 67.5C21.075 67.5 16.875 63.3 16.875 58.125C16.875 56.9437 17.1188 55.8187 17.5125 54.7875C14.8875 53.1187 13.125 50.2125 13.125 46.875C13.125 44.9625 13.7063 43.1812 14.7 41.7C10.425 39.525 7.5 35.1187 7.5 30C7.5 24 11.5312 18.9563 17.0062 17.3813C17.6812 12.8625 21.5437 9.375 26.25 9.375C26.5125 9.375 26.7562 9.43125 27 9.45C28.425 6.09375 31.7437 3.75 35.625 3.75C40.2375 3.75 44.0625 7.0875 44.8312 11.4937Z" fill="#8CC152"/>
<path d="M70.425 38.4375C72.0938 40.125 73.125 42.45 73.125 45C73.125 45.8813 72.9938 46.7438 72.7688 47.55L72.6938 47.6813C71.7938 47.1562 70.7625 46.875 69.675 46.875C68.3812 46.875 67.125 47.2875 66.075 48.0562C61.3688 51.5437 58.1437 56.5125 56.8688 62.0438C56.775 62.4375 56.7 62.8313 56.625 63.225C56.3813 64.5938 56.25 66 56.25 67.4062V71.3438C56.25 74.7562 56.9813 78.0563 58.3313 81.0938L44.55 78.975C44.0625 78.9 43.5938 78.8437 43.125 78.8062C37.95 78.8062 33.75 74.55 33.75 69.375C33.75 68.1937 33.9938 67.0688 34.3875 66.0375C31.7625 64.3688 30 61.4625 30 58.125C30 56.2125 30.5813 54.4312 31.575 52.95C27.3 50.775 24.375 46.3687 24.375 41.25C24.375 35.25 28.4062 30.2063 33.8812 28.6313C34.5562 24.1125 38.4187 20.625 43.125 20.625C43.3875 20.625 43.6312 20.6813 43.875 20.7C45.3 17.3438 48.6187 15 52.5 15C53.1375 15 53.7375 15.0563 54.3375 15.1875C58.1063 15.9375 61.05 18.9375 61.7062 22.7438C62.3625 22.5938 63.0563 22.5 63.75 22.5C68.925 22.5 73.125 26.7 73.125 31.875C73.125 34.425 72.0938 36.75 70.425 38.4375Z" fill="#B4DD7F"/>
<path d="M12.75 93.75H22.875C22.6312 94.95 22.5 96.2062 22.5 97.5C22.5 98.7937 22.6312 100.05 22.875 101.25H12.75H7.5C6.46875 101.25 5.53125 100.837 4.85625 100.144C4.1625 99.4687 3.75 98.5312 3.75 97.5C3.75 95.4375 5.4375 93.75 7.5 93.75H12.75Z" fill="#B4DD7F"/>
<path d="M13.4813 86.325L24.6375 88.8187C23.8313 90.3562 23.2312 92.0062 22.875 93.75H12.75C10.8938 93.75 9.375 92.2313 9.375 90.375V89.625C9.375 87.7687 10.8938 86.25 12.75 86.25C12.9938 86.25 13.2375 86.2688 13.4813 86.325Z" fill="#B4DD7F"/>
<path d="M24.6375 106.181L13.4813 108.675C13.2375 108.731 12.9938 108.75 12.75 108.75C10.8938 108.75 9.375 107.231 9.375 105.375V104.625C9.375 102.769 10.8938 101.25 12.75 101.25H22.875C23.2312 102.994 23.8313 104.644 24.6375 106.181Z" fill="#B4DD7F"/>
<path d="M114.15 91.8C112.819 90.2625 110.963 89.175 108.844 88.8562L108.656 88.8187L101.363 87.7125L83.775 85.0125V84.9938L72 83.1937L68.85 82.7063L58.3313 81.0938L44.55 78.975C44.0625 78.9 43.5938 78.8437 43.125 78.8062C42.6375 78.7687 42.1687 78.75 41.7 78.75H41.25C37.5938 78.75 34.1813 79.8 31.2938 81.6187C28.4813 83.3812 26.175 85.875 24.6375 88.8187C23.8313 90.3562 23.2312 92.0063 22.875 93.75C22.6312 94.95 22.5 96.2062 22.5 97.5C22.5 98.7938 22.6312 100.05 22.875 101.25C23.2312 102.994 23.8313 104.644 24.6375 106.181C25.5188 107.869 26.6625 109.425 27.9938 110.756C31.3875 114.15 36.075 116.25 41.25 116.25H41.7C42.6375 116.25 43.5938 116.175 44.55 116.025L72 111.806L108.844 106.144C113.1 105.488 116.25 101.812 116.25 97.5C116.25 95.3438 115.463 93.3375 114.15 91.8Z" fill="#FF826E"/>
<path d="M118.125 67.4044C118.125 59.2406 114.167 51.4444 107.537 46.5506C106.185 45.5494 104.509 45 102.819 45C100.704 45 98.7225 45.8456 97.2675 47.2838C96.9956 47.0569 96.7481 46.8075 96.4669 46.5919C95.4263 45.7969 94.1775 45.3244 92.895 45.1294L93.7219 36.0375C93.7406 35.82 93.75 35.6006 93.75 35.3813C93.75 31.38 90.495 28.125 86.4938 28.125H86.0062C82.005 28.125 78.75 31.38 78.75 35.3813C78.75 35.6006 78.7594 35.82 78.78 36.0394L79.6106 45.1706C78.4219 45.3956 77.2725 45.855 76.3013 46.5787C75.9656 46.83 75.6675 47.1188 75.345 47.3831C75.1781 47.2106 75.0019 47.0494 74.82 46.8937C74.9269 46.2694 75 45.6375 75 45C75 42.6188 74.2575 40.3406 72.8812 38.4375C74.2575 36.5344 75 34.2581 75 31.875C75 25.455 69.5681 20.2519 63.0956 20.6456C61.8919 17.1956 59.085 14.595 55.635 13.5919C53.3512 10.7437 49.9087 9.16313 46.2206 9.39563C44.6681 4.94625 40.4644 1.875 35.625 1.875C31.5656 1.875 27.87 4.04625 25.8787 7.50562C20.9137 7.6725 16.6219 11.1769 15.3919 15.9506C9.58687 18.1162 5.625 23.7356 5.625 30C5.625 35.0231 8.09625 39.615 12.1856 42.39C11.5688 43.7981 11.25 45.3206 11.25 46.875C11.25 50.25 12.75 53.3869 15.3244 55.5113C15.1088 56.3813 15 57.2569 15 58.125C15 63.87 19.3312 68.625 24.9 69.2944L29.0475 80.91C26.9231 82.4756 25.1138 84.435 23.7206 86.685L13.8975 84.5025C13.5244 84.4163 13.14 84.375 12.7537 84.375C9.85687 84.375 7.5 86.7319 7.5 89.6287V90.3713C7.5 90.8963 7.60125 91.395 7.74563 91.875H7.5C4.39875 91.875 1.875 94.3988 1.875 97.5C1.875 100.601 4.39875 103.125 7.5 103.125H7.74563C7.60125 103.605 7.5 104.104 7.5 104.629V105.371C7.5 108.268 9.85687 110.625 12.7537 110.625C13.14 110.625 13.5244 110.584 13.8937 110.499L23.7206 108.315C27.36 114.191 33.8456 118.125 41.25 118.125H41.6906C42.7331 118.125 43.7887 118.044 44.8256 117.885L109.121 107.994C114.338 107.19 118.125 102.778 118.125 97.5C118.125 93.2794 115.682 89.6475 112.044 87.9356C115.929 83.295 118.125 77.4075 118.125 71.3456V67.4044ZM94.1869 49.5713C99.7838 53.85 103.125 60.6656 103.125 67.8075V74.6944C103.125 78.5381 102.167 82.3013 100.361 85.6594L85.3256 83.3456C84.7069 80.625 84.375 77.8462 84.375 75.0562V67.4438C84.375 65.5538 84.5644 63.6656 84.8512 61.7944C85.3106 61.8338 85.7681 61.875 86.25 61.875C91.5956 61.875 95.625 59.4562 95.625 56.25C95.625 54.48 94.4006 52.9087 92.28 51.8775L92.5556 48.8438C93.1406 48.9619 93.7031 49.1981 94.1869 49.5713ZM86.0062 31.875H86.4956C88.4287 31.875 90.0019 33.4481 90.0019 35.3813C90.0019 35.4881 89.9981 35.595 89.9869 35.7L88.2844 54.4256L89.715 54.885C91.3575 55.41 91.875 56.1019 91.875 56.25C91.875 56.7169 89.88 58.125 86.25 58.125C82.62 58.125 80.625 56.7169 80.625 56.25C80.625 56.1019 81.1425 55.41 82.785 54.8831L84.2156 54.4237L82.5131 35.7C82.5038 35.5931 82.5 35.4863 82.5 35.3813C82.5 33.4481 84.0731 31.875 86.0062 31.875ZM79.95 48.9056L80.22 51.8775C78.0994 52.9087 76.875 54.48 76.875 56.25C76.875 58.3162 78.5606 60.0431 81.18 61.0181C80.8444 63.1462 80.625 65.295 80.625 67.4438V75.0562C80.625 77.6325 80.8725 80.205 81.3525 82.7344L70.2994 81.0337C69.6975 78.9731 69.375 76.8487 69.375 74.6925V67.8056C69.375 60.675 72.8025 53.8613 78.5437 49.5825C78.9619 49.2713 79.4437 49.0425 79.95 48.9056ZM59.6869 79.4006C58.6688 76.8244 58.125 74.1263 58.125 71.3456V67.4025C58.125 60.4238 61.515 53.7562 67.1906 49.5638C67.9031 49.0387 68.7881 48.75 69.6806 48.75C70.8131 48.75 71.8556 49.2056 72.6188 49.9688C68.1975 54.8138 65.625 61.1775 65.625 67.8075V74.6944C65.625 76.6275 65.8556 78.54 66.2738 80.415L59.6869 79.4006ZM59.8631 23.0644L60.2044 24.9937L62.1169 24.5681C62.6981 24.4387 63.2325 24.375 63.75 24.375C67.8863 24.375 71.25 27.7388 71.25 31.875C71.25 33.8456 70.485 35.7094 69.0975 37.1231L67.8075 38.4375L69.0975 39.7519C70.485 41.1656 71.25 43.0294 71.25 45C71.25 45.0563 71.2387 45.1125 71.2387 45.1706C70.7306 45.0694 70.2131 45 69.6806 45C67.9912 45 66.315 45.5494 64.9631 46.5488C61.5506 49.0669 58.8638 52.3613 57.0413 56.0719C56.3306 53.8594 55.5844 51.7406 54.8156 49.7287C56.55 40.5675 62.9831 35.265 63.0487 35.2106L61.875 33.75L60.7031 32.2856C60.4425 32.4937 55.3706 36.6356 52.5225 44.1075C48.6206 35.1488 44.9381 29.3531 44.7019 28.9856L41.5463 31.0144C41.5969 31.0913 44.4563 35.5894 47.7844 42.75C42.1763 40.6387 35.8031 41.2219 35.4375 41.2594L35.8106 44.9906C38.6306 44.7075 46.6181 44.8444 50.3494 48.6525C51.6637 51.8831 52.9594 55.425 54.1031 59.22C48.4031 56.2969 41.6025 56.25 41.25 56.25V60C41.3381 60 49.6856 60.0563 54.6263 63.9844C54.4725 65.1131 54.375 66.2531 54.375 67.4044V71.3475C54.375 73.8806 54.765 76.3575 55.4888 78.7575L44.8256 77.1169C44.2631 77.0306 43.695 76.9725 43.125 76.9312C38.9888 76.9312 35.625 73.5413 35.625 69.3769C35.625 68.5031 35.7994 67.6069 36.1406 66.7087L36.6881 65.2744L35.3888 64.4531C33.1894 63.0619 31.875 60.6975 31.875 58.125C31.875 56.6494 32.3081 55.2188 33.1275 53.985L34.2956 52.23L32.4169 51.2756C28.6125 49.3406 26.25 45.5006 26.25 41.25C26.25 36.2606 29.6025 31.8169 34.4044 30.4425L35.5687 30.1088L35.7431 28.9106C36.2775 25.2562 39.4519 22.5 43.125 22.5C43.1944 22.5 43.2619 22.515 43.3294 22.5244C43.4606 22.5431 43.5938 22.56 43.7269 22.5694L45.0713 22.6781L45.6 21.4369C46.7831 18.6656 49.4906 16.875 52.5 16.875C56.1338 16.875 59.2294 19.4775 59.8631 23.0644ZM27.5719 65.625H26.25C22.1138 65.625 18.75 62.2612 18.75 58.125C18.75 57.2494 18.9244 56.3531 19.2656 55.4587L19.815 54.0244L18.5156 53.2031C16.3144 51.8119 15 49.4475 15 46.875C15 45.3994 15.4331 43.9688 16.2525 42.735L17.4206 40.98L15.5419 40.0256C11.7375 38.0906 9.375 34.2506 9.375 30C9.375 25.0106 12.7275 20.5669 17.5275 19.1925L18.6919 18.8587L18.8663 17.6606C19.4025 14.0062 22.5769 11.25 26.25 11.25C26.3213 11.25 26.3906 11.265 26.46 11.2744C26.5875 11.2913 26.715 11.3081 26.8463 11.3194L28.1963 11.4319L28.7269 10.185C29.9081 7.41563 32.6156 5.625 35.625 5.625C39.2588 5.625 42.3544 8.2275 42.9881 11.8144L43.3294 13.7437L45.2419 13.3181C45.8231 13.1888 46.3575 13.125 46.875 13.125C47.7375 13.125 48.5569 13.3144 49.3406 13.5881C46.5844 14.3944 44.2106 16.2244 42.7537 18.7556C37.7887 18.9225 33.4969 22.4269 32.2669 27.2006C26.4619 29.3662 22.5 34.9856 22.5 41.25C22.5 46.2731 24.9712 50.865 29.0606 53.64C28.4437 55.0481 28.125 56.5706 28.125 58.125C28.125 61.5 29.625 64.6369 32.1994 66.7631C31.9838 67.6331 31.875 68.5069 31.875 69.375C31.875 72.6694 33.2925 75.63 35.5369 77.6963C34.4231 78.0188 33.3525 78.4369 32.325 78.9337L27.5719 65.625ZM11.25 90.3713V89.6287C11.25 88.6875 12.1613 87.9619 13.0819 88.1606L22.005 90.1444C21.7875 90.7106 21.5925 91.2862 21.4256 91.875H12.7537C11.925 91.875 11.25 91.2 11.25 90.3713ZM5.625 97.5C5.625 96.4669 6.46688 95.625 7.5 95.625H12.7537H20.7188C20.6644 96.2438 20.625 96.8662 20.625 97.5C20.625 98.1338 20.6644 98.7562 20.7206 99.375H12.7537H7.5C6.46688 99.375 5.625 98.5331 5.625 97.5ZM13.0781 106.839C12.1894 107.031 11.25 106.311 11.25 105.371V104.629C11.25 103.8 11.925 103.125 12.7537 103.125H21.4237C21.5906 103.714 21.7875 104.289 22.0031 104.856L13.0781 106.839ZM114.375 97.5C114.375 100.914 111.926 103.768 108.553 104.287L44.2594 114.178C43.4081 114.309 42.5438 114.375 41.6906 114.375H41.25C31.9463 114.375 24.375 106.804 24.375 97.5C24.375 88.1963 31.9463 80.625 41.25 80.625H41.6906C42.5438 80.625 43.4081 80.6906 44.2575 80.82L108.551 90.7106C111.926 91.2319 114.375 94.0856 114.375 97.5ZM114.375 71.3456C114.375 77.1131 112.041 82.6931 107.979 86.8294L104.254 86.2556C105.966 82.6594 106.875 78.7162 106.875 74.6925V67.8056C106.875 61.1419 104.336 54.7463 99.975 49.8938C100.732 49.1794 101.738 48.75 102.819 48.75C103.714 48.75 104.597 49.0387 105.309 49.5675C110.985 53.7563 114.375 60.4256 114.375 67.4044V71.3456Z" fill="#2D2D2D"/>
<path d="M39.375 88.125H43.125V106.875H39.375V88.125Z" fill="#2D2D2D"/>
<path d="M54.375 88.125H58.125V106.875H54.375V88.125Z" fill="#2D2D2D"/>
<path d="M69.375 88.125H73.125V106.875H69.375V88.125Z" fill="#2D2D2D"/>
<path d="M84.375 91.875H88.125V103.125H84.375V91.875Z" fill="#2D2D2D"/>
<path d="M99.375 93.75H103.125V101.25H99.375V93.75Z" fill="#2D2D2D"/>
</svg>
